<?xml version="1.0" encoding="UTF-8" standalone="no"?>
<!DOCTYPE svg PUBLIC "-//W3C//DTD SVG 1.1//EN"
 "http://www.w3.org/Graphics/SVG/1.1/DTD/svg11.dtd">
<!-- Generated by graphviz version 2.40.1 (20161225.0304)
 -->
<!-- Title: G Pages: 1 -->
<svg width="1303pt" height="997pt"
 viewBox="0.00 0.00 1302.65 996.66" xmlns="http://www.w3.org/2000/svg" xmlns:xlink="http://www.w3.org/1999/xlink">
<g id="graph0" class="graph" transform="scale(1 1) rotate(0) translate(4 992.6646)">
<title>G</title>
<polygon fill="#ffffff" stroke="transparent" points="-4,4 -4,-992.6646 1298.6511,-992.6646 1298.6511,4 -4,4"/>
<g id="clust1" class="cluster">
<title>cluster_Global</title>
<path fill="none" stroke="#c0c0c0" d="M20,-58.6646C20,-58.6646 1274.6511,-58.6646 1274.6511,-58.6646 1280.6511,-58.6646 1286.6511,-64.6646 1286.6511,-70.6646 1286.6511,-70.6646 1286.6511,-968.6646 1286.6511,-968.6646 1286.6511,-974.6646 1280.6511,-980.6646 1274.6511,-980.6646 1274.6511,-980.6646 20,-980.6646 20,-980.6646 14,-980.6646 8,-974.6646 8,-968.6646 8,-968.6646 8,-70.6646 8,-70.6646 8,-64.6646 14,-58.6646 20,-58.6646"/>
<text text-anchor="middle" x="647.3255" y="-967.8646" font-family="Times,serif" font-size="11.00" fill="#c0c0c0">Global</text>
</g>
<g id="clust2" class="cluster">
<title>cluster_\smtech</title>
<path fill="none" stroke="#c0c0c0" d="M28,-66.6646C28,-66.6646 1266.6511,-66.6646 1266.6511,-66.6646 1272.6511,-66.6646 1278.6511,-72.6646 1278.6511,-78.6646 1278.6511,-78.6646 1278.6511,-941.6646 1278.6511,-941.6646 1278.6511,-947.6646 1272.6511,-953.6646 1266.6511,-953.6646 1266.6511,-953.6646 28,-953.6646 28,-953.6646 22,-953.6646 16,-947.6646 16,-941.6646 16,-941.6646 16,-78.6646 16,-78.6646 16,-72.6646 22,-66.6646 28,-66.6646"/>
<text text-anchor="middle" x="647.3255" y="-940.8646" font-family="Times,serif" font-size="11.00" fill="#c0c0c0">smtech</text>
</g>
<g id="clust3" class="cluster">
<title>cluster_\smtech\StMarksSearch</title>
<path fill="none" stroke="#c0c0c0" d="M36,-74.6646C36,-74.6646 1258.6511,-74.6646 1258.6511,-74.6646 1264.6511,-74.6646 1270.6511,-80.6646 1270.6511,-86.6646 1270.6511,-86.6646 1270.6511,-914.6646 1270.6511,-914.6646 1270.6511,-920.6646 1264.6511,-926.6646 1258.6511,-926.6646 1258.6511,-926.6646 36,-926.6646 36,-926.6646 30,-926.6646 24,-920.6646 24,-914.6646 24,-914.6646 24,-86.6646 24,-86.6646 24,-80.6646 30,-74.6646 36,-74.6646"/>
<text text-anchor="middle" x="647.3255" y="-913.8646" font-family="Times,serif" font-size="11.00" fill="#c0c0c0">StMarksSearch</text>
</g>
<g id="clust4" class="cluster">
<title>cluster_\smtech\StMarksSearch\WordPress</title>
<path fill="none" stroke="#c0c0c0" d="M513.2057,-340.6646C513.2057,-340.6646 989.6242,-340.6646 989.6242,-340.6646 995.6242,-340.6646 1001.6242,-346.6646 1001.6242,-352.6646 1001.6242,-352.6646 1001.6242,-613.6646 1001.6242,-613.6646 1001.6242,-619.6646 995.6242,-625.6646 989.6242,-625.6646 989.6242,-625.6646 513.2057,-625.6646 513.2057,-625.6646 507.2057,-625.6646 501.2057,-619.6646 501.2057,-613.6646 501.2057,-613.6646 501.2057,-352.6646 501.2057,-352.6646 501.2057,-346.6646 507.2057,-340.6646 513.2057,-340.6646"/>
<text text-anchor="middle" x="751.4149" y="-612.8646" font-family="Times,serif" font-size="11.00" fill="#c0c0c0">WordPress</text>
</g>
<g id="clust5" class="cluster">
<title>cluster_\smtech\StMarksSearch\WordPress\Pages</title>
<path fill="none" stroke="#c0c0c0" d="M852.9033,-527.6646C852.9033,-527.6646 933.5151,-527.6646 933.5151,-527.6646 939.5151,-527.6646 945.5151,-533.6646 945.5151,-539.6646 945.5151,-539.6646 945.5151,-586.6646 945.5151,-586.6646 945.5151,-592.6646 939.5151,-598.6646 933.5151,-598.6646 933.5151,-598.6646 852.9033,-598.6646 852.9033,-598.6646 846.9033,-598.6646 840.9033,-592.6646 840.9033,-586.6646 840.9033,-586.6646 840.9033,-539.6646 840.9033,-539.6646 840.9033,-533.6646 846.9033,-527.6646 852.9033,-527.6646"/>
<text text-anchor="middle" x="893.2092" y="-585.8646" font-family="Times,serif" font-size="11.00" fill="#c0c0c0">Pages</text>
</g>
<g id="clust6" class="cluster">
<title>cluster_\smtech\StMarksSearch\WordPress\Posts</title>
<path fill="none" stroke="#c0c0c0" d="M852.9033,-448.6646C852.9033,-448.6646 933.5151,-448.6646 933.5151,-448.6646 939.5151,-448.6646 945.5151,-454.6646 945.5151,-460.6646 945.5151,-460.6646 945.5151,-507.6646 945.5151,-507.6646 945.5151,-513.6646 939.5151,-519.6646 933.5151,-519.6646 933.5151,-519.6646 852.9033,-519.6646 852.9033,-519.6646 846.9033,-519.6646 840.9033,-513.6646 840.9033,-507.6646 840.9033,-507.6646 840.9033,-460.6646 840.9033,-460.6646 840.9033,-454.6646 846.9033,-448.6646 852.9033,-448.6646"/>
<text text-anchor="middle" x="893.2092" y="-506.8646" font-family="Times,serif" font-size="11.00" fill="#c0c0c0">Posts</text>
</g>
<g id="clust7" class="cluster">
<title>cluster_\smtech\StMarksSearch\Canvas</title>
<path fill="none" stroke="#c0c0c0" d="M523.1073,-633.6646C523.1073,-633.6646 1250.6511,-633.6646 1250.6511,-633.6646 1256.6511,-633.6646 1262.6511,-639.6646 1262.6511,-645.6646 1262.6511,-645.6646 1262.6511,-887.6646 1262.6511,-887.6646 1262.6511,-893.6646 1256.6511,-899.6646 1250.6511,-899.6646 1250.6511,-899.6646 523.1073,-899.6646 523.1073,-899.6646 517.1073,-899.6646 511.1073,-893.6646 511.1073,-887.6646 511.1073,-887.6646 511.1073,-645.6646 511.1073,-645.6646 511.1073,-639.6646 517.1073,-633.6646 523.1073,-633.6646"/>
<text text-anchor="middle" x="886.8792" y="-886.8646" font-family="Times,serif" font-size="11.00" fill="#c0c0c0">Canvas</text>
</g>
<g id="clust8" class="cluster">
<title>cluster_\smtech\StMarksSearch\Canvas\Courses</title>
<path fill="none" stroke="#c0c0c0" d="M803.3952,-641.6646C803.3952,-641.6646 1242.6511,-641.6646 1242.6511,-641.6646 1248.6511,-641.6646 1254.6511,-647.6646 1254.6511,-653.6646 1254.6511,-653.6646 1254.6511,-860.6646 1254.6511,-860.6646 1254.6511,-866.6646 1248.6511,-872.6646 1242.6511,-872.6646 1242.6511,-872.6646 803.3952,-872.6646 803.3952,-872.6646 797.3952,-872.6646 791.3952,-866.6646 791.3952,-860.6646 791.3952,-860.6646 791.3952,-653.6646 791.3952,-653.6646 791.3952,-647.6646 797.3952,-641.6646 803.3952,-641.6646"/>
<text text-anchor="middle" x="1023.0231" y="-859.8646" font-family="Times,serif" font-size="11.00" fill="#c0c0c0">Courses</text>
</g>
<g id="clust9" class="cluster">
<title>cluster_\smtech\StMarksSearch\Canvas\Courses\Announcements</title>
<path fill="none" stroke="#c0c0c0" d="M1089.4274,-774.6646C1089.4274,-774.6646 1222.8478,-774.6646 1222.8478,-774.6646 1228.8478,-774.6646 1234.8478,-780.6646 1234.8478,-786.6646 1234.8478,-786.6646 1234.8478,-833.6646 1234.8478,-833.6646 1234.8478,-839.6646 1228.8478,-845.6646 1222.8478,-845.6646 1222.8478,-845.6646 1089.4274,-845.6646 1089.4274,-845.6646 1083.4274,-845.6646 1077.4274,-839.6646 1077.4274,-833.6646 1077.4274,-833.6646 1077.4274,-786.6646 1077.4274,-786.6646 1077.4274,-780.6646 1083.4274,-774.6646 1089.4274,-774.6646"/>
<text text-anchor="middle" x="1156.1376" y="-832.8646" font-family="Times,serif" font-size="11.00" fill="#c0c0c0">Announcements</text>
</g>
<g id="clust10" class="cluster">
<title>cluster_\smtech\StMarksSearch\Canvas\Courses\Pages</title>
<path fill="none" stroke="#c0c0c0" d="M1115.8317,-695.6646C1115.8317,-695.6646 1196.4435,-695.6646 1196.4435,-695.6646 1202.4435,-695.6646 1208.4435,-701.6646 1208.4435,-707.6646 1208.4435,-707.6646 1208.4435,-754.6646 1208.4435,-754.6646 1208.4435,-760.6646 1202.4435,-766.6646 1196.4435,-766.6646 1196.4435,-766.6646 1115.8317,-766.6646 1115.8317,-766.6646 1109.8317,-766.6646 1103.8317,-760.6646 1103.8317,-754.6646 1103.8317,-754.6646 1103.8317,-707.6646 1103.8317,-707.6646 1103.8317,-701.6646 1109.8317,-695.6646 1115.8317,-695.6646"/>
<text text-anchor="middle" x="1156.1376" y="-753.8646" font-family="Times,serif" font-size="11.00" fill="#c0c0c0">Pages</text>
</g>
<g id="clust11" class="cluster">
<title>cluster_\smtech\StMarksSearch\LibApps</title>
<path fill="none" stroke="#c0c0c0" d="M519.8067,-82.6646C519.8067,-82.6646 997.6242,-82.6646 997.6242,-82.6646 1003.6242,-82.6646 1009.6242,-88.6646 1009.6242,-94.6646 1009.6242,-94.6646 1009.6242,-276.6646 1009.6242,-276.6646 1009.6242,-282.6646 1003.6242,-288.6646 997.6242,-288.6646 997.6242,-288.6646 519.8067,-288.6646 519.8067,-288.6646 513.8067,-288.6646 507.8067,-282.6646 507.8067,-276.6646 507.8067,-276.6646 507.8067,-94.6646 507.8067,-94.6646 507.8067,-88.6646 513.8067,-82.6646 519.8067,-82.6646"/>
<text text-anchor="middle" x="758.7155" y="-275.8646" font-family="Times,serif" font-size="11.00" fill="#c0c0c0">LibApps</text>
</g>
<g id="clust12" class="cluster">
<title>cluster_\smtech\StMarksSearch\LibApps\LibGuides</title>
<path fill="none" stroke="#c0c0c0" d="M796.7941,-136.6646C796.7941,-136.6646 989.6242,-136.6646 989.6242,-136.6646 995.6242,-136.6646 1001.6242,-142.6646 1001.6242,-148.6646 1001.6242,-148.6646 1001.6242,-249.6646 1001.6242,-249.6646 1001.6242,-255.6646 995.6242,-261.6646 989.6242,-261.6646 989.6242,-261.6646 796.7941,-261.6646 796.7941,-261.6646 790.7941,-261.6646 784.7941,-255.6646 784.7941,-249.6646 784.7941,-249.6646 784.7941,-148.6646 784.7941,-148.6646 784.7941,-142.6646 790.7941,-136.6646 796.7941,-136.6646"/>
<text text-anchor="middle" x="893.2092" y="-248.8646" font-family="Times,serif" font-size="11.00" fill="#c0c0c0">LibGuides</text>
</g>
<!-- \\smtech\\StMarksSearch\\WordPress\\Pages\\PagesSearch -->
<g id="node1" class="node">
<title>\\smtech\\StMarksSearch\\WordPress\\Pages\\PagesSearch</title>
<polygon fill="none" stroke="#000000" points="937.3218,-571.6646 849.0965,-571.6646 849.0965,-535.6646 937.3218,-535.6646 937.3218,-571.6646"/>
<text text-anchor="middle" x="893.2092" y="-550.3646" font-family="Courier,monospace" font-size="11.00" fill="#000000">PagesSearch</text>
</g>
<!-- \\smtech\\StMarksSearch\\WordPress\\AbstractWordPressSearchDomain -->
<g id="node3" class="node">
<title>\\smtech\\StMarksSearch\\WordPress\\AbstractWordPressSearchDomain</title>
<polygon fill="none" stroke="#000000" points="716.8528,-492.6646 508.9896,-492.6646 508.9896,-456.6646 716.8528,-456.6646 716.8528,-492.6646"/>
<text text-anchor="start" x="579.9159" y="-476.8646" font-family="Courier,monospace" font-size="11.00" fill="#000000">«abstract»</text>
<text text-anchor="start" x="517.2057" y="-465.8646" font-family="Courier,monospace" font-size="11.00" fill="#000000">AbstractWordPressSearchDomain</text>
</g>
<!-- \\smtech\\StMarksSearch\\WordPress\\Pages\\PagesSearch&#45;&gt;\\smtech\\StMarksSearch\\WordPress\\AbstractWordPressSearchDomain -->
<g id="edge8" class="edge">
<title>\\smtech\\StMarksSearch\\WordPress\\Pages\\PagesSearch&#45;&gt;\\smtech\\StMarksSearch\\WordPress\\AbstractWordPressSearchDomain</title>
<path fill="none" stroke="#000000" d="M848.8792,-541.4815C829.2356,-536.0614 805.852,-529.5798 784.7941,-523.6646 752.179,-514.503 716.1206,-504.2431 685.4888,-495.4882"/>
<polygon fill="none" stroke="#000000" points="686.3223,-492.0863 675.7453,-492.7019 684.3976,-498.8165 686.3223,-492.0863"/>
</g>
<!-- \\smtech\\StMarksSearch\\WordPress\\Posts\\PostsSearch -->
<g id="node2" class="node">
<title>\\smtech\\StMarksSearch\\WordPress\\Posts\\PostsSearch</title>
<polygon fill="none" stroke="#000000" points="937.3218,-492.6646 849.0965,-492.6646 849.0965,-456.6646 937.3218,-456.6646 937.3218,-492.6646"/>
<text text-anchor="middle" x="893.2092" y="-471.3646" font-family="Courier,monospace" font-size="11.00" fill="#000000">PostsSearch</text>
</g>
<!-- \\smtech\\StMarksSearch\\WordPress\\Posts\\PostsSearch&#45;&gt;\\smtech\\StMarksSearch\\WordPress\\AbstractWordPressSearchDomain -->
<g id="edge17" class="edge">
<title>\\smtech\\StMarksSearch\\WordPress\\Posts\\PostsSearch&#45;&gt;\\smtech\\StMarksSearch\\WordPress\\AbstractWordPressSearchDomain</title>
<path fill="none" stroke="#000000" d="M848.7967,-474.6646C815.9998,-474.6646 769.804,-474.6646 726.9775,-474.6646"/>
<polygon fill="none" stroke="#000000" points="726.7511,-471.1647 716.7511,-474.6646 726.751,-478.1647 726.7511,-471.1647"/>
</g>
<!-- \\smtech\\StMarksSearch\\AbstractSearchDomain -->
<g id="node16" class="node">
<title>\\smtech\\StMarksSearch\\AbstractSearchDomain</title>
<polygon fill="none" stroke="#000000" points="433.0591,-422.6646 285.0161,-422.6646 285.0161,-386.6646 433.0591,-386.6646 433.0591,-422.6646"/>
<text text-anchor="start" x="326.0322" y="-406.8646" font-family="Courier,monospace" font-size="11.00" fill="#000000">«abstract»</text>
<text text-anchor="start" x="293.0269" y="-395.8646" font-family="Courier,monospace" font-size="11.00" fill="#000000">AbstractSearchDomain</text>
</g>
<!-- \\smtech\\StMarksSearch\\WordPress\\AbstractWordPressSearchDomain&#45;&gt;\\smtech\\StMarksSearch\\AbstractSearchDomain -->
<g id="edge1" class="edge">
<title>\\smtech\\StMarksSearch\\WordPress\\AbstractWordPressSearchDomain&#45;&gt;\\smtech\\StMarksSearch\\AbstractSearchDomain</title>
<path fill="none" stroke="#000000" d="M517.0532,-456.6413C511.676,-455.3644 506.3635,-454.0369 501.2057,-452.6646 473.0784,-445.1814 442.4233,-435.0873 416.8043,-426.0866"/>
<polygon fill="none" stroke="#000000" points="417.8426,-422.7414 407.2478,-422.6983 415.5033,-429.3389 417.8426,-422.7414"/>
</g>
<!-- \\smtech\\StMarksSearch\\WordPress\\WordPressSearchDomainFactory -->
<g id="node4" class="node">
<title>\\smtech\\StMarksSearch\\WordPress\\WordPressSearchDomainFactory</title>
<polygon fill="none" stroke="#000000" points="993.5393,-438.6646 792.879,-438.6646 792.879,-402.6646 993.5393,-402.6646 993.5393,-438.6646"/>
<text text-anchor="middle" x="893.2092" y="-417.3646" font-family="Courier,monospace" font-size="11.00" fill="#000000">WordPressSearchDomainFactory</text>
</g>
<!-- \\smtech\\StMarksSearch\\AbstractSearchDomainFactory -->
<g id="node19" class="node">
<title>\\smtech\\StMarksSearch\\AbstractSearchDomainFactory</title>
<polygon fill="none" stroke="#000000" points="710.1504,-332.6646 515.6921,-332.6646 515.6921,-296.6646 710.1504,-296.6646 710.1504,-332.6646"/>
<text text-anchor="start" x="579.9159" y="-316.8646" font-family="Courier,monospace" font-size="11.00" fill="#000000">«abstract»</text>
<text text-anchor="start" x="523.8067" y="-305.8646" font-family="Courier,monospace" font-size="11.00" fill="#000000">AbstractSearchDomainFactory</text>
</g>
<!-- \\smtech\\StMarksSearch\\WordPress\\WordPressSearchDomainFactory&#45;&gt;\\smtech\\StMarksSearch\\AbstractSearchDomainFactory -->
<g id="edge2" class="edge">
<title>\\smtech\\StMarksSearch\\WordPress\\WordPressSearchDomainFactory&#45;&gt;\\smtech\\StMarksSearch\\AbstractSearchDomainFactory</title>
<path fill="none" stroke="#000000" d="M805.1488,-402.656C798.1003,-400.042 791.2263,-397.0612 784.7941,-393.6646 751.1117,-375.8782 754.8503,-353.7246 720.7941,-336.6646 720.3669,-336.4506 719.9377,-336.2387 719.5067,-336.0288"/>
<polygon fill="none" stroke="#000000" points="720.7691,-332.7602 710.2078,-331.9176 717.9385,-339.1624 720.7691,-332.7602"/>
</g>
<!-- \\smtech\\StMarksSearch\\WordPress\\WordPressPest -->
<g id="node5" class="node">
<title>\\smtech\\StMarksSearch\\WordPress\\WordPressPest</title>
<polygon fill="none" stroke="#000000" points="944.0233,-384.6646 842.395,-384.6646 842.395,-348.6646 944.0233,-348.6646 944.0233,-384.6646"/>
<text text-anchor="middle" x="893.2092" y="-363.3646" font-family="Courier,monospace" font-size="11.00" fill="#000000">WordPressPest</text>
</g>
<!-- \\Battis\\Educoder\\PestJSON -->
<g id="node22" class="node">
<title>\\Battis\\Educoder\\PestJSON</title>
<ellipse fill="none" stroke="#000000" cx="612.9212" cy="-32.6646" rx="107.7459" ry="18"/>
<text text-anchor="middle" x="612.9212" y="-28.4646" font-family="Times,serif" font-size="14.00" fill="#c0c0c0">\Battis\Educoder\PestJSON</text>
</g>
<!-- \\smtech\\StMarksSearch\\WordPress\\WordPressPest&#45;&gt;\\Battis\\Educoder\\PestJSON -->
<g id="edge9" class="edge">
<title>\\smtech\\StMarksSearch\\WordPress\\WordPressPest&#45;&gt;\\Battis\\Educoder\\PestJSON</title>
<path fill="none" stroke="#000000" d="M867.4317,-348.5861C843.0219,-330.2472 806.9072,-299.767 784.7941,-265.6646 737.0016,-191.9597 780.5905,-143.0148 720.7941,-78.6646 710.1075,-67.1642 696.0718,-58.4184 681.674,-51.8112"/>
<polygon fill="none" stroke="#000000" points="682.7636,-48.471 672.1919,-47.7706 680.0195,-54.9107 682.7636,-48.471"/>
</g>
<!-- \\smtech\\StMarksSearch\\Canvas\\Courses\\Announcements\\AnnouncementsSearch -->
<g id="node6" class="node">
<title>\\smtech\\StMarksSearch\\Canvas\\Courses\\Announcements\\AnnouncementsSearch</title>
<polygon fill="none" stroke="#000000" points="1227.0587,-818.6646 1085.2166,-818.6646 1085.2166,-782.6646 1227.0587,-782.6646 1227.0587,-818.6646"/>
<text text-anchor="middle" x="1156.1376" y="-797.3646" font-family="Courier,monospace" font-size="11.00" fill="#000000">AnnouncementsSearch</text>
</g>
<!-- \\smtech\\StMarksSearch\\Canvas\\Courses\\AbstractCourseSearchDomain -->
<g id="node9" class="node">
<title>\\smtech\\StMarksSearch\\Canvas\\Courses\\AbstractCourseSearchDomain</title>
<polygon fill="none" stroke="#000000" points="986.8375,-739.6646 799.5809,-739.6646 799.5809,-703.6646 986.8375,-703.6646 986.8375,-739.6646"/>
<text text-anchor="start" x="860.2038" y="-723.8646" font-family="Courier,monospace" font-size="11.00" fill="#000000">«abstract»</text>
<text text-anchor="start" x="807.3952" y="-712.8646" font-family="Courier,monospace" font-size="11.00" fill="#000000">AbstractCourseSearchDomain</text>
</g>
<!-- \\smtech\\StMarksSearch\\Canvas\\Courses\\Announcements\\AnnouncementsSearch&#45;&gt;\\smtech\\StMarksSearch\\Canvas\\Courses\\AbstractCourseSearchDomain -->
<g id="edge6" class="edge">
<title>\\smtech\\StMarksSearch\\Canvas\\Courses\\Announcements\\AnnouncementsSearch&#45;&gt;\\smtech\\StMarksSearch\\Canvas\\Courses\\AbstractCourseSearchDomain</title>
<path fill="none" stroke="#000000" d="M1096.1461,-782.6394C1056.5773,-770.7505 1004.5971,-755.1325 963.1508,-742.6794"/>
<polygon fill="none" stroke="#000000" points="963.9818,-739.2746 953.3976,-739.749 961.9675,-745.9785 963.9818,-739.2746"/>
</g>
<!-- \\smtech\\StMarksSearch\\Canvas\\Courses\\Pages\\PagesSearch -->
<g id="node7" class="node">
<title>\\smtech\\StMarksSearch\\Canvas\\Courses\\Pages\\PagesSearch</title>
<polygon fill="none" stroke="#000000" points="1200.2503,-739.6646 1112.025,-739.6646 1112.025,-703.6646 1200.2503,-703.6646 1200.2503,-739.6646"/>
<text text-anchor="middle" x="1156.1376" y="-718.3646" font-family="Courier,monospace" font-size="11.00" fill="#000000">PagesSearch</text>
</g>
<!-- \\smtech\\StMarksSearch\\Canvas\\Courses\\Pages\\PagesSearch&#45;&gt;\\smtech\\StMarksSearch\\Canvas\\Courses\\AbstractCourseSearchDomain -->
<g id="edge7" class="edge">
<title>\\smtech\\StMarksSearch\\Canvas\\Courses\\Pages\\PagesSearch&#45;&gt;\\smtech\\StMarksSearch\\Canvas\\Courses\\AbstractCourseSearchDomain</title>
<path fill="none" stroke="#000000" d="M1111.8327,-721.6646C1080.4641,-721.6646 1037.0457,-721.6646 997.1636,-721.6646"/>
<polygon fill="none" stroke="#000000" points="997.1098,-718.1647 987.1097,-721.6646 997.1097,-725.1647 997.1098,-718.1647"/>
</g>
<!-- \\smtech\\StMarksSearch\\Canvas\\Courses\\CourseSearchDomainFactory -->
<g id="node8" class="node">
<title>\\smtech\\StMarksSearch\\Canvas\\Courses\\CourseSearchDomainFactory</title>
<polygon fill="none" stroke="#000000" points="1246.6645,-685.6646 1065.6108,-685.6646 1065.6108,-649.6646 1246.6645,-649.6646 1246.6645,-685.6646"/>
<text text-anchor="middle" x="1156.1376" y="-664.3646" font-family="Courier,monospace" font-size="11.00" fill="#000000">CourseSearchDomainFactory</text>
</g>
<!-- \\smtech\\StMarksSearch\\Canvas\\Courses\\CourseSearchDomainFactory&#45;&gt;\\smtech\\StMarksSearch\\AbstractSearchDomainFactory -->
<g id="edge14" class="edge">
<title>\\smtech\\StMarksSearch\\Canvas\\Courses\\CourseSearchDomainFactory&#45;&gt;\\smtech\\StMarksSearch\\AbstractSearchDomainFactory</title>
<path fill="none" stroke="#000000" d="M1069.8297,-649.6538C1068.3604,-648.4049 1066.9552,-647.0768 1065.6242,-645.6646 969.8946,-544.0982 1114.2353,-429.0573 1009.6242,-336.6646 968.1583,-300.0418 822.9028,-300.6767 720.2063,-306.2572"/>
<polygon fill="none" stroke="#000000" points="719.8801,-302.77 710.094,-306.8299 720.276,-309.7588 719.8801,-302.77"/>
</g>
<!-- \\smtech\\StMarksSearch\\Canvas\\AbstractCanvasSearchDomain -->
<g id="node10" class="node">
<title>\\smtech\\StMarksSearch\\Canvas\\AbstractCanvasSearchDomain</title>
<polygon fill="none" stroke="#000000" points="706.5495,-708.6646 519.2929,-708.6646 519.2929,-672.6646 706.5495,-672.6646 706.5495,-708.6646"/>
<text text-anchor="start" x="579.9159" y="-692.8646" font-family="Courier,monospace" font-size="11.00" fill="#000000">«abstract»</text>
<text text-anchor="start" x="527.1073" y="-681.8646" font-family="Courier,monospace" font-size="11.00" fill="#000000">AbstractCanvasSearchDomain</text>
</g>
<!-- \\smtech\\StMarksSearch\\Canvas\\Courses\\AbstractCourseSearchDomain&#45;&gt;\\smtech\\StMarksSearch\\Canvas\\AbstractCanvasSearchDomain -->
<g id="edge20" class="edge">
<title>\\smtech\\StMarksSearch\\Canvas\\Courses\\AbstractCourseSearchDomain&#45;&gt;\\smtech\\StMarksSearch\\Canvas\\AbstractCanvasSearchDomain</title>
<path fill="none" stroke="#000000" d="M799.4877,-711.299C772.9579,-708.3648 743.9259,-705.1538 716.8336,-702.1574"/>
<polygon fill="none" stroke="#000000" points="716.8786,-698.6411 706.5544,-701.0205 716.109,-705.5987 716.8786,-698.6411"/>
</g>
<!-- \\smtech\\StMarksSearch\\Canvas\\AbstractCanvasSearchDomain&#45;&gt;\\smtech\\StMarksSearch\\AbstractSearchDomain -->
<g id="edge19" class="edge">
<title>\\smtech\\StMarksSearch\\Canvas\\AbstractCanvasSearchDomain&#45;&gt;\\smtech\\StMarksSearch\\AbstractSearchDomain</title>
<path fill="none" stroke="#000000" d="M567.9332,-672.5418C546.0853,-662.2246 520.4637,-647.7329 501.2057,-629.6646 438.2607,-570.6083 391.4815,-477.9424 370.7893,-432.1565"/>
<polygon fill="none" stroke="#000000" points="373.9201,-430.5828 366.6598,-422.8668 367.5237,-433.4263 373.9201,-430.5828"/>
</g>
<!-- \\smtech\\StMarksSearch\\LibApps\\LibGuides\\LibGuidesSearch -->
<g id="node11" class="node">
<title>\\smtech\\StMarksSearch\\LibApps\\LibGuides\\LibGuidesSearch</title>
<polygon fill="none" stroke="#000000" points="950.7253,-180.6646 835.6931,-180.6646 835.6931,-144.6646 950.7253,-144.6646 950.7253,-180.6646"/>
<text text-anchor="middle" x="893.2092" y="-159.3646" font-family="Courier,monospace" font-size="11.00" fill="#000000">LibGuidesSearch</text>
</g>
<!-- \\smtech\\StMarksSearch\\LibApps\\AbstractLibAppsSearchDomain -->
<g id="node14" class="node">
<title>\\smtech\\StMarksSearch\\LibApps\\AbstractLibAppsSearchDomain</title>
<polygon fill="none" stroke="#000000" points="710.1504,-220.6646 515.6921,-220.6646 515.6921,-184.6646 710.1504,-184.6646 710.1504,-220.6646"/>
<text text-anchor="start" x="579.9159" y="-204.8646" font-family="Courier,monospace" font-size="11.00" fill="#000000">«abstract»</text>
<text text-anchor="start" x="523.8067" y="-193.8646" font-family="Courier,monospace" font-size="11.00" fill="#000000">AbstractLibAppsSearchDomain</text>
</g>
<!-- \\smtech\\StMarksSearch\\LibApps\\LibGuides\\LibGuidesSearch&#45;&gt;\\smtech\\StMarksSearch\\LibApps\\AbstractLibAppsSearchDomain -->
<g id="edge10" class="edge">
<title>\\smtech\\StMarksSearch\\LibApps\\LibGuides\\LibGuidesSearch&#45;&gt;\\smtech\\StMarksSearch\\LibApps\\AbstractLibAppsSearchDomain</title>
<path fill="none" stroke="#000000" d="M835.4732,-170.9041C802.3001,-175.6383 759.5726,-181.7359 720.439,-187.3207"/>
<polygon fill="none" stroke="#000000" points="719.4485,-183.9265 710.0433,-188.8043 720.4375,-190.8563 719.4485,-183.9265"/>
</g>
<!-- \\smtech\\StMarksSearch\\LibApps\\LibGuides\\LibGuidesSearchDomainFactory -->
<g id="node12" class="node">
<title>\\smtech\\StMarksSearch\\LibApps\\LibGuides\\LibGuidesSearchDomainFactory</title>
<polygon fill="none" stroke="#000000" points="993.5393,-234.6646 792.879,-234.6646 792.879,-198.6646 993.5393,-198.6646 993.5393,-234.6646"/>
<text text-anchor="middle" x="893.2092" y="-213.3646" font-family="Courier,monospace" font-size="11.00" fill="#000000">LibGuidesSearchDomainFactory</text>
</g>
<!-- \\smtech\\StMarksSearch\\LibApps\\LibGuides\\LibGuidesSearchDomainFactory&#45;&gt;\\smtech\\StMarksSearch\\AbstractSearchDomainFactory -->
<g id="edge21" class="edge">
<title>\\smtech\\StMarksSearch\\LibApps\\LibGuides\\LibGuidesSearchDomainFactory&#45;&gt;\\smtech\\StMarksSearch\\AbstractSearchDomainFactory</title>
<path fill="none" stroke="#000000" d="M793.8502,-234.669C790.7602,-235.913 787.7333,-237.2429 784.7941,-238.6646 751.291,-254.8704 754.2893,-276.4425 720.7941,-292.6646 720.3641,-292.8729 719.9321,-293.0792 719.4984,-293.2836"/>
<polygon fill="none" stroke="#000000" points="717.9599,-290.1351 710.1502,-297.2947 720.7201,-296.5679 717.9599,-290.1351"/>
</g>
<!-- \\smtech\\StMarksSearch\\LibApps\\LibAppsPest -->
<g id="node13" class="node">
<title>\\smtech\\StMarksSearch\\LibApps\\LibAppsPest</title>
<polygon fill="none" stroke="#000000" points="937.3218,-126.6646 849.0965,-126.6646 849.0965,-90.6646 937.3218,-90.6646 937.3218,-126.6646"/>
<text text-anchor="middle" x="893.2092" y="-105.3646" font-family="Courier,monospace" font-size="11.00" fill="#000000">LibAppsPest</text>
</g>
<!-- \\smtech\\StMarksSearch\\LibApps\\LibAppsPest&#45;&gt;\\Battis\\Educoder\\PestJSON -->
<g id="edge11" class="edge">
<title>\\smtech\\StMarksSearch\\LibApps\\LibAppsPest&#45;&gt;\\Battis\\Educoder\\PestJSON</title>
<path fill="none" stroke="#000000" d="M848.7967,-96.6222C803.1891,-84.2557 731.6708,-64.8635 679.3339,-50.6724"/>
<polygon fill="none" stroke="#000000" points="680.0332,-47.2357 669.4658,-47.9967 678.2013,-53.9917 680.0332,-47.2357"/>
</g>
<!-- \\smtech\\StMarksSearch\\LibApps\\AbstractLibAppsSearchDomain&#45;&gt;\\smtech\\StMarksSearch\\AbstractSearchDomain -->
<g id="edge16" class="edge">
<title>\\smtech\\StMarksSearch\\LibApps\\AbstractLibAppsSearchDomain&#45;&gt;\\smtech\\StMarksSearch\\AbstractSearchDomain</title>
<path fill="none" stroke="#000000" d="M515.6054,-217.3031C510.597,-219.4422 505.7603,-221.8823 501.2057,-224.6646 439.3854,-262.4281 393.6352,-337.4153 372.3332,-377.6538"/>
<polygon fill="none" stroke="#000000" points="369.1782,-376.1352 367.6856,-386.6244 375.3935,-379.3554 369.1782,-376.1352"/>
</g>
<!-- \\smtech\\StMarksSearch\\SearchSource -->
<g id="node15" class="node">
<title>\\smtech\\StMarksSearch\\SearchSource</title>
<polygon fill="none" stroke="#000000" points="406.7507,-264.6646 311.3245,-264.6646 311.3245,-228.6646 406.7507,-228.6646 406.7507,-264.6646"/>
<text text-anchor="middle" x="359.0376" y="-243.3646" font-family="Courier,monospace" font-size="11.00" fill="#000000">SearchSource</text>
</g>
<!-- \\smtech\\StMarksSearch\\ParameterArrayConstructor -->
<g id="node17" class="node">
<title>\\smtech\\StMarksSearch\\ParameterArrayConstructor</title>
<polygon fill="none" stroke="#000000" points="213.0403,-290.6646 31.9866,-290.6646 31.9866,-254.6646 213.0403,-254.6646 213.0403,-290.6646"/>
<text text-anchor="middle" x="122.5134" y="-269.3646" font-family="Courier,monospace" font-size="11.00" fill="#000000">ParameterArrayConstructor</text>
</g>
<!-- \\smtech\\StMarksSearch\\SearchSource&#45;&gt;\\smtech\\StMarksSearch\\ParameterArrayConstructor -->
<g id="edge3" class="edge">
<title>\\smtech\\StMarksSearch\\SearchSource&#45;&gt;\\smtech\\StMarksSearch\\ParameterArrayConstructor</title>
<path fill="none" stroke="#000000" d="M311.1734,-251.9261C285.9478,-254.699 254.0035,-258.2105 223.6056,-261.552"/>
<polygon fill="none" stroke="#000000" points="222.9256,-258.1056 213.3679,-262.6774 223.6905,-265.0637 222.9256,-258.1056"/>
</g>
<!-- \\JsonSerializable -->
<g id="node21" class="node">
<title>\\JsonSerializable</title>
<ellipse fill="none" stroke="#000000" cx="122.5134" cy="-32.6646" rx="70.0582" ry="18"/>
<text text-anchor="middle" x="122.5134" y="-28.4646" font-family="Times,serif" font-size="14.00" fill="#c0c0c0">\JsonSerializable</text>
</g>
<!-- \\smtech\\StMarksSearch\\SearchSource&#45;&gt;\\JsonSerializable -->
<g id="edge4" class="edge">
<title>\\smtech\\StMarksSearch\\SearchSource&#45;&gt;\\JsonSerializable</title>
<path fill="none" stroke="#000000" stroke-dasharray="1,5" d="M331.3853,-228.6228C316.5522,-218.0971 298.5888,-203.9115 285.0269,-188.6646 244.1954,-142.7602 259.6095,-110.7205 213.0269,-70.6646 203.2382,-62.2475 191.3175,-55.4844 179.3834,-50.1336"/>
<polygon fill="none" stroke="#000000" points="180.426,-46.7757 169.8502,-46.1405 177.7216,-53.2322 180.426,-46.7757"/>
</g>
<!-- \\smtech\\StMarksSearch\\AbstractSearchDomain&#45;&gt;\\smtech\\StMarksSearch\\ParameterArrayConstructor -->
<g id="edge5" class="edge">
<title>\\smtech\\StMarksSearch\\AbstractSearchDomain&#45;&gt;\\smtech\\StMarksSearch\\ParameterArrayConstructor</title>
<path fill="none" stroke="#000000" d="M326.6459,-386.5874C284.3013,-362.9556 210.0899,-321.5395 163.7675,-295.6878"/>
<polygon fill="none" stroke="#000000" points="165.3305,-292.5519 154.8926,-290.7349 161.9191,-298.6645 165.3305,-292.5519"/>
</g>
<!-- \\smtech\\StMarksSearch\\SearchResult -->
<g id="node18" class="node">
<title>\\smtech\\StMarksSearch\\SearchResult</title>
<polygon fill="none" stroke="#000000" points="406.7507,-179.6646 311.3245,-179.6646 311.3245,-143.6646 406.7507,-143.6646 406.7507,-179.6646"/>
<text text-anchor="middle" x="359.0376" y="-158.3646" font-family="Courier,monospace" font-size="11.00" fill="#000000">SearchResult</text>
</g>
<!-- \\smtech\\StMarksSearch\\SearchResult&#45;&gt;\\smtech\\StMarksSearch\\ParameterArrayConstructor -->
<g id="edge12" class="edge">
<title>\\smtech\\StMarksSearch\\SearchResult&#45;&gt;\\smtech\\StMarksSearch\\ParameterArrayConstructor</title>
<path fill="none" stroke="#000000" d="M320.5095,-179.7457C279.4471,-199.0162 214.3793,-229.5523 170.1343,-250.3163"/>
<polygon fill="none" stroke="#000000" points="168.5908,-247.1743 161.025,-254.5912 171.5647,-253.5112 168.5908,-247.1743"/>
</g>
<!-- \\smtech\\StMarksSearch\\SearchResult&#45;&gt;\\JsonSerializable -->
<g id="edge13" class="edge">
<title>\\smtech\\StMarksSearch\\SearchResult&#45;&gt;\\JsonSerializable</title>
<path fill="none" stroke="#000000" stroke-dasharray="1,5" d="M332.8767,-143.5745C304.2214,-124.1885 256.5353,-93.1724 213.0269,-70.6646 199.7439,-63.7931 184.9323,-57.1676 171.2007,-51.4267"/>
<polygon fill="none" stroke="#000000" points="172.4784,-48.1679 161.8987,-47.6015 169.8161,-54.6418 172.4784,-48.1679"/>
</g>
<!-- \\smtech\\StMarksSearch\\AbstractSearchDomainFactory&#45;&gt;\\smtech\\StMarksSearch\\ParameterArrayConstructor -->
<g id="edge15" class="edge">
<title>\\smtech\\StMarksSearch\\AbstractSearchDomainFactory&#45;&gt;\\smtech\\StMarksSearch\\ParameterArrayConstructor</title>
<path fill="none" stroke="#000000" d="M515.7394,-306.3417C431.13,-299.0955 308.945,-288.6312 223.292,-281.2956"/>
<polygon fill="none" stroke="#000000" points="223.5566,-277.8055 213.2943,-280.4394 222.9592,-284.78 223.5566,-277.8055"/>
</g>
<!-- \\smtech\\StMarksSearch\\Relevance -->
<g id="node20" class="node">
<title>\\smtech\\StMarksSearch\\Relevance</title>
<polygon fill="none" stroke="#000000" points="1194.0484,-118.6646 1118.2268,-118.6646 1118.2268,-82.6646 1194.0484,-82.6646 1194.0484,-118.6646"/>
<text text-anchor="middle" x="1156.1376" y="-97.3646" font-family="Courier,monospace" font-size="11.00" fill="#000000">Relevance</text>
</g>
<!-- \\smtech\\StMarksSearch\\Relevance&#45;&gt;\\JsonSerializable -->
<g id="edge18" class="edge">
<title>\\smtech\\StMarksSearch\\Relevance&#45;&gt;\\JsonSerializable</title>
<path fill="none" stroke="#000000" stroke-dasharray="1,5" d="M1118.1571,-89.4785C1043.0774,-68.0153 870.0056,-21.7556 720.7941,-5.6646 623.7618,4.7994 598.7387,-2.1921 501.2057,-5.6646 396.0865,-9.4073 274.8652,-18.976 198.4667,-25.6526"/>
<polygon fill="none" stroke="#000000" points="198.1076,-22.1706 188.4529,-26.5337 198.7212,-29.1437 198.1076,-22.1706"/>
</g>
</g>
</svg>
