<?xml version="1.0" encoding="UTF-8" standalone="no"?>
<!DOCTYPE svg PUBLIC "-//W3C//DTD SVG 1.1//EN"
 "http://www.w3.org/Graphics/SVG/1.1/DTD/svg11.dtd">
<!-- Generated by graphviz version 2.40.1 (20161225.0304)
 -->
<!-- Title: G Pages: 1 -->
<svg width="1035pt" height="964pt"
 viewBox="0.00 0.00 1035.02 964.00" xmlns="http://www.w3.org/2000/svg" xmlns:xlink="http://www.w3.org/1999/xlink">
<g id="graph0" class="graph" transform="scale(1 1) rotate(0) translate(4 960)">
<title>G</title>
<polygon fill="#ffffff" stroke="transparent" points="-4,4 -4,-960 1031.0231,-960 1031.0231,4 -4,4"/>
<g id="clust1" class="cluster">
<title>cluster_Global</title>
<path fill="none" stroke="#c0c0c0" d="M20,-44C20,-44 1007.0231,-44 1007.0231,-44 1013.0231,-44 1019.0231,-50 1019.0231,-56 1019.0231,-56 1019.0231,-936 1019.0231,-936 1019.0231,-942 1013.0231,-948 1007.0231,-948 1007.0231,-948 20,-948 20,-948 14,-948 8,-942 8,-936 8,-936 8,-56 8,-56 8,-50 14,-44 20,-44"/>
<text text-anchor="middle" x="513.5116" y="-935.2" font-family="Times,serif" font-size="11.00" fill="#c0c0c0">Global</text>
</g>
<g id="clust2" class="cluster">
<title>cluster_\smtech</title>
<path fill="none" stroke="#c0c0c0" d="M28,-52C28,-52 999.0231,-52 999.0231,-52 1005.0231,-52 1011.0231,-58 1011.0231,-64 1011.0231,-64 1011.0231,-909 1011.0231,-909 1011.0231,-915 1005.0231,-921 999.0231,-921 999.0231,-921 28,-921 28,-921 22,-921 16,-915 16,-909 16,-909 16,-64 16,-64 16,-58 22,-52 28,-52"/>
<text text-anchor="middle" x="513.5116" y="-908.2" font-family="Times,serif" font-size="11.00" fill="#c0c0c0">smtech</text>
</g>
<g id="clust3" class="cluster">
<title>cluster_\smtech\StMarksSearch</title>
<path fill="none" stroke="#c0c0c0" d="M36,-60C36,-60 991.0231,-60 991.0231,-60 997.0231,-60 1003.0231,-66 1003.0231,-72 1003.0231,-72 1003.0231,-882 1003.0231,-882 1003.0231,-888 997.0231,-894 991.0231,-894 991.0231,-894 36,-894 36,-894 30,-894 24,-888 24,-882 24,-882 24,-72 24,-72 24,-66 30,-60 36,-60"/>
<text text-anchor="middle" x="513.5116" y="-881.2" font-family="Times,serif" font-size="11.00" fill="#c0c0c0">StMarksSearch</text>
</g>
<g id="clust4" class="cluster">
<title>cluster_\smtech\StMarksSearch\Canvas</title>
<path fill="none" stroke="#c0c0c0" d="M270.0804,-555C270.0804,-555 983.0231,-555 983.0231,-555 989.0231,-555 995.0231,-561 995.0231,-567 995.0231,-567 995.0231,-855 995.0231,-855 995.0231,-861 989.0231,-867 983.0231,-867 983.0231,-867 270.0804,-867 270.0804,-867 264.0804,-867 258.0804,-861 258.0804,-855 258.0804,-855 258.0804,-567 258.0804,-567 258.0804,-561 264.0804,-555 270.0804,-555"/>
<text text-anchor="middle" x="626.5518" y="-854.2" font-family="Times,serif" font-size="11.00" fill="#c0c0c0">Canvas</text>
</g>
<g id="clust5" class="cluster">
<title>cluster_\smtech\StMarksSearch\Canvas\Courses</title>
<path fill="none" stroke="#c0c0c0" d="M543.7673,-609C543.7673,-609 967.9194,-609 967.9194,-609 973.9194,-609 979.9194,-615 979.9194,-621 979.9194,-621 979.9194,-828 979.9194,-828 979.9194,-834 973.9194,-840 967.9194,-840 967.9194,-840 543.7673,-840 543.7673,-840 537.7673,-840 531.7673,-834 531.7673,-828 531.7673,-828 531.7673,-621 531.7673,-621 531.7673,-615 537.7673,-609 543.7673,-609"/>
<text text-anchor="middle" x="755.8433" y="-827.2" font-family="Times,serif" font-size="11.00" fill="#c0c0c0">Courses</text>
</g>
<g id="clust6" class="cluster">
<title>cluster_\smtech\StMarksSearch\Canvas\Courses\Announcements</title>
<path fill="none" stroke="#c0c0c0" d="M826.499,-742C826.499,-742 959.9194,-742 959.9194,-742 965.9194,-742 971.9194,-748 971.9194,-754 971.9194,-754 971.9194,-801 971.9194,-801 971.9194,-807 965.9194,-813 959.9194,-813 959.9194,-813 826.499,-813 826.499,-813 820.499,-813 814.499,-807 814.499,-801 814.499,-801 814.499,-754 814.499,-754 814.499,-748 820.499,-742 826.499,-742"/>
<text text-anchor="middle" x="893.2092" y="-800.2" font-family="Times,serif" font-size="11.00" fill="#c0c0c0">Announcements</text>
</g>
<g id="clust7" class="cluster">
<title>cluster_\smtech\StMarksSearch\Canvas\Courses\Pages</title>
<path fill="none" stroke="#c0c0c0" d="M852.9033,-663C852.9033,-663 933.5151,-663 933.5151,-663 939.5151,-663 945.5151,-669 945.5151,-675 945.5151,-675 945.5151,-722 945.5151,-722 945.5151,-728 939.5151,-734 933.5151,-734 933.5151,-734 852.9033,-734 852.9033,-734 846.9033,-734 840.9033,-728 840.9033,-722 840.9033,-722 840.9033,-675 840.9033,-675 840.9033,-669 846.9033,-663 852.9033,-663"/>
<text text-anchor="middle" x="893.2092" y="-721.2" font-family="Times,serif" font-size="11.00" fill="#c0c0c0">Pages</text>
</g>
<g id="clust8" class="cluster">
<title>cluster_\smtech\StMarksSearch\WordPress</title>
<path fill="none" stroke="#c0c0c0" d="M260.1788,-228C260.1788,-228 687.0893,-228 687.0893,-228 693.0893,-228 699.0893,-234 699.0893,-240 699.0893,-240 699.0893,-491 699.0893,-491 699.0893,-497 693.0893,-503 687.0893,-503 687.0893,-503 260.1788,-503 260.1788,-503 254.1788,-503 248.1788,-497 248.1788,-491 248.1788,-491 248.1788,-240 248.1788,-240 248.1788,-234 254.1788,-228 260.1788,-228"/>
<text text-anchor="middle" x="473.634" y="-490.2" font-family="Times,serif" font-size="11.00" fill="#c0c0c0">WordPress</text>
</g>
<g id="clust9" class="cluster">
<title>cluster_\smtech\StMarksSearch\WordPress\Pages</title>
<path fill="none" stroke="#c0c0c0" d="M593.2753,-361C593.2753,-361 673.8871,-361 673.8871,-361 679.8871,-361 685.8871,-367 685.8871,-373 685.8871,-373 685.8871,-420 685.8871,-420 685.8871,-426 679.8871,-432 673.8871,-432 673.8871,-432 593.2753,-432 593.2753,-432 587.2753,-432 581.2753,-426 581.2753,-420 581.2753,-420 581.2753,-373 581.2753,-373 581.2753,-367 587.2753,-361 593.2753,-361"/>
<text text-anchor="middle" x="633.5812" y="-419.2" font-family="Times,serif" font-size="11.00" fill="#c0c0c0">Pages</text>
</g>
<g id="clust10" class="cluster">
<title>cluster_\smtech\StMarksSearch\WordPress\Posts</title>
<path fill="none" stroke="#c0c0c0" d="M593.2753,-282C593.2753,-282 673.8871,-282 673.8871,-282 679.8871,-282 685.8871,-288 685.8871,-294 685.8871,-294 685.8871,-341 685.8871,-341 685.8871,-347 679.8871,-353 673.8871,-353 673.8871,-353 593.2753,-353 593.2753,-353 587.2753,-353 581.2753,-347 581.2753,-341 581.2753,-341 581.2753,-294 581.2753,-294 581.2753,-288 587.2753,-282 593.2753,-282"/>
<text text-anchor="middle" x="633.5812" y="-340.2" font-family="Times,serif" font-size="11.00" fill="#c0c0c0">Posts</text>
</g>
<g id="clust11" class="cluster">
<title>cluster_\smtech\StMarksSearch\LibApps</title>
<path fill="none" stroke="#c0c0c0" d="M266.7799,-68C266.7799,-68 695.0893,-68 695.0893,-68 701.0893,-68 707.0893,-74 707.0893,-80 707.0893,-80 707.0893,-208 707.0893,-208 707.0893,-214 701.0893,-220 695.0893,-220 695.0893,-220 266.7799,-220 266.7799,-220 260.7799,-220 254.7799,-214 254.7799,-208 254.7799,-208 254.7799,-80 254.7799,-80 254.7799,-74 260.7799,-68 266.7799,-68"/>
<text text-anchor="middle" x="480.9346" y="-207.2" font-family="Times,serif" font-size="11.00" fill="#c0c0c0">LibApps</text>
</g>
<g id="clust12" class="cluster">
<title>cluster_\smtech\StMarksSearch\LibApps\LibGuides</title>
<path fill="none" stroke="#c0c0c0" d="M580.0732,-122C580.0732,-122 687.0893,-122 687.0893,-122 693.0893,-122 699.0893,-128 699.0893,-134 699.0893,-134 699.0893,-181 699.0893,-181 699.0893,-187 693.0893,-193 687.0893,-193 687.0893,-193 580.0732,-193 580.0732,-193 574.0732,-193 568.0732,-187 568.0732,-181 568.0732,-181 568.0732,-134 568.0732,-134 568.0732,-128 574.0732,-122 580.0732,-122"/>
<text text-anchor="middle" x="633.5812" y="-180.2" font-family="Times,serif" font-size="11.00" fill="#c0c0c0">LibGuides</text>
</g>
<!-- \\smtech\\StMarksSearch\\Canvas\\Courses\\Announcements\\AnnouncementsSearch -->
<g id="node1" class="node">
<title>\\smtech\\StMarksSearch\\Canvas\\Courses\\Announcements\\AnnouncementsSearch</title>
<polygon fill="none" stroke="#000000" points="964.1302,-786 822.2881,-786 822.2881,-750 964.1302,-750 964.1302,-786"/>
<text text-anchor="middle" x="893.2092" y="-764.7" font-family="Courier,monospace" font-size="11.00" fill="#000000">AnnouncementsSearch</text>
</g>
<!-- \\smtech\\StMarksSearch\\Canvas\\Courses\\AbstractCourseSearchDomain -->
<g id="node4" class="node">
<title>\\smtech\\StMarksSearch\\Canvas\\Courses\\AbstractCourseSearchDomain</title>
<polygon fill="none" stroke="#000000" points="727.2095,-707 539.9529,-707 539.9529,-671 727.2095,-671 727.2095,-707"/>
<text text-anchor="start" x="600.5759" y="-691.2" font-family="Courier,monospace" font-size="11.00" fill="#000000">«abstract»</text>
<text text-anchor="start" x="547.7673" y="-680.2" font-family="Courier,monospace" font-size="11.00" fill="#000000">AbstractCourseSearchDomain</text>
</g>
<!-- \\smtech\\StMarksSearch\\Canvas\\Courses\\Announcements\\AnnouncementsSearch&#45;&gt;\\smtech\\StMarksSearch\\Canvas\\Courses\\AbstractCourseSearchDomain -->
<g id="edge3" class="edge">
<title>\\smtech\\StMarksSearch\\Canvas\\Courses\\Announcements\\AnnouncementsSearch&#45;&gt;\\smtech\\StMarksSearch\\Canvas\\Courses\\AbstractCourseSearchDomain</title>
<path fill="none" stroke="#000000" d="M833.9707,-749.9748C794.8986,-738.0859 743.571,-722.4678 702.6449,-710.0148"/>
<polygon fill="none" stroke="#000000" points="703.5999,-706.647 693.0141,-707.0843 701.5622,-713.3439 703.5999,-706.647"/>
</g>
<!-- \\smtech\\StMarksSearch\\Canvas\\Courses\\Pages\\PagesSearch -->
<g id="node2" class="node">
<title>\\smtech\\StMarksSearch\\Canvas\\Courses\\Pages\\PagesSearch</title>
<polygon fill="none" stroke="#000000" points="937.3218,-707 849.0965,-707 849.0965,-671 937.3218,-671 937.3218,-707"/>
<text text-anchor="middle" x="893.2092" y="-685.7" font-family="Courier,monospace" font-size="11.00" fill="#000000">PagesSearch</text>
</g>
<!-- \\smtech\\StMarksSearch\\Canvas\\Courses\\Pages\\PagesSearch&#45;&gt;\\smtech\\StMarksSearch\\Canvas\\Courses\\AbstractCourseSearchDomain -->
<g id="edge5" class="edge">
<title>\\smtech\\StMarksSearch\\Canvas\\Courses\\Pages\\PagesSearch&#45;&gt;\\smtech\\StMarksSearch\\Canvas\\Courses\\AbstractCourseSearchDomain</title>
<path fill="none" stroke="#000000" d="M848.8725,-689C818.2942,-689 776.3251,-689 737.5595,-689"/>
<polygon fill="none" stroke="#000000" points="737.2541,-685.5001 727.2541,-689 737.2541,-692.5001 737.2541,-685.5001"/>
</g>
<!-- \\smtech\\StMarksSearch\\Canvas\\Courses\\CourseSearch -->
<g id="node3" class="node">
<title>\\smtech\\StMarksSearch\\Canvas\\Courses\\CourseSearch</title>
<polygon fill="none" stroke="#000000" points="940.9223,-653 845.496,-653 845.496,-617 940.9223,-617 940.9223,-653"/>
<text text-anchor="middle" x="893.2092" y="-631.7" font-family="Courier,monospace" font-size="11.00" fill="#000000">CourseSearch</text>
</g>
<!-- \\smtech\\StMarksSearch\\Canvas\\AbstractCanvasSearch -->
<g id="node5" class="node">
<title>\\smtech\\StMarksSearch\\Canvas\\AbstractCanvasSearch</title>
<polygon fill="none" stroke="#000000" points="707.6027,-600 559.5597,-600 559.5597,-564 707.6027,-564 707.6027,-600"/>
<text text-anchor="start" x="600.5759" y="-584.2" font-family="Courier,monospace" font-size="11.00" fill="#000000">«abstract»</text>
<text text-anchor="start" x="567.5705" y="-573.2" font-family="Courier,monospace" font-size="11.00" fill="#000000">AbstractCanvasSearch</text>
</g>
<!-- \\smtech\\StMarksSearch\\Canvas\\Courses\\CourseSearch&#45;&gt;\\smtech\\StMarksSearch\\Canvas\\AbstractCanvasSearch -->
<g id="edge4" class="edge">
<title>\\smtech\\StMarksSearch\\Canvas\\Courses\\CourseSearch&#45;&gt;\\smtech\\StMarksSearch\\Canvas\\AbstractCanvasSearch</title>
<path fill="none" stroke="#000000" d="M845.5894,-625.279C809.8782,-617.989 760.0691,-607.821 717.7028,-599.1724"/>
<polygon fill="none" stroke="#000000" points="718.166,-595.6949 707.668,-597.1239 716.7659,-602.5534 718.166,-595.6949"/>
</g>
<!-- \\smtech\\StMarksSearch\\Canvas\\AbstractCanvasSearchDomain -->
<g id="node6" class="node">
<title>\\smtech\\StMarksSearch\\Canvas\\AbstractCanvasSearchDomain</title>
<polygon fill="none" stroke="#000000" points="453.5227,-654 266.2661,-654 266.2661,-618 453.5227,-618 453.5227,-654"/>
<text text-anchor="start" x="326.889" y="-638.2" font-family="Courier,monospace" font-size="11.00" fill="#000000">«abstract»</text>
<text text-anchor="start" x="274.0804" y="-627.2" font-family="Courier,monospace" font-size="11.00" fill="#000000">AbstractCanvasSearchDomain</text>
</g>
<!-- \\smtech\\StMarksSearch\\Canvas\\Courses\\AbstractCourseSearchDomain&#45;&gt;\\smtech\\StMarksSearch\\Canvas\\AbstractCanvasSearchDomain -->
<g id="edge14" class="edge">
<title>\\smtech\\StMarksSearch\\Canvas\\Courses\\AbstractCourseSearchDomain&#45;&gt;\\smtech\\StMarksSearch\\Canvas\\AbstractCanvasSearchDomain</title>
<path fill="none" stroke="#000000" d="M540.5415,-670.9827C515.6429,-666.161 488.5815,-660.9205 463.1667,-655.9989"/>
<polygon fill="none" stroke="#000000" points="463.6247,-652.5226 453.1417,-654.0575 462.2938,-659.395 463.6247,-652.5226"/>
</g>
<!-- \\smtech\\StMarksSearch\\SearchEngine -->
<g id="node20" class="node">
<title>\\smtech\\StMarksSearch\\SearchEngine</title>
<polygon fill="none" stroke="#000000" points="407.6075,-547 312.1812,-547 312.1812,-511 407.6075,-511 407.6075,-547"/>
<text text-anchor="middle" x="359.8944" y="-525.7" font-family="Courier,monospace" font-size="11.00" fill="#000000">SearchEngine</text>
</g>
<!-- \\smtech\\StMarksSearch\\Canvas\\AbstractCanvasSearch&#45;&gt;\\smtech\\StMarksSearch\\SearchEngine -->
<g id="edge2" class="edge">
<title>\\smtech\\StMarksSearch\\Canvas\\AbstractCanvasSearch&#45;&gt;\\smtech\\StMarksSearch\\SearchEngine</title>
<path fill="none" stroke="#000000" d="M559.5176,-567.6574C514.9117,-559.0194 458.9435,-548.1811 417.6284,-540.1803"/>
<polygon fill="none" stroke="#000000" points="418.2053,-536.7271 407.7223,-538.262 416.8744,-543.5994 418.2053,-536.7271"/>
</g>
<!-- \\smtech\\StMarksSearch\\AbstractSearchDomain -->
<g id="node17" class="node">
<title>\\smtech\\StMarksSearch\\AbstractSearchDomain</title>
<polygon fill="none" stroke="#000000" points="180.0322,-476 31.9893,-476 31.9893,-440 180.0322,-440 180.0322,-476"/>
<text text-anchor="start" x="73.0054" y="-460.2" font-family="Courier,monospace" font-size="11.00" fill="#000000">«abstract»</text>
<text text-anchor="start" x="40" y="-449.2" font-family="Courier,monospace" font-size="11.00" fill="#000000">AbstractSearchDomain</text>
</g>
<!-- \\smtech\\StMarksSearch\\Canvas\\AbstractCanvasSearchDomain&#45;&gt;\\smtech\\StMarksSearch\\AbstractSearchDomain -->
<g id="edge12" class="edge">
<title>\\smtech\\StMarksSearch\\Canvas\\AbstractCanvasSearchDomain&#45;&gt;\\smtech\\StMarksSearch\\AbstractSearchDomain</title>
<path fill="none" stroke="#000000" d="M266.2068,-622.2919C259.9365,-619.9443 253.8621,-617.2021 248.1788,-614 191.8198,-582.2455 145.5829,-520.1004 122.3094,-484.5809"/>
<polygon fill="none" stroke="#000000" points="125.2469,-482.6778 116.895,-476.1588 119.3587,-486.4632 125.2469,-482.6778"/>
</g>
<!-- \\smtech\\StMarksSearch\\Canvas\\RequireCanvasPestParameter -->
<g id="node7" class="node">
<title>\\smtech\\StMarksSearch\\Canvas\\RequireCanvasPestParameter</title>
<polygon fill="none" stroke="#000000" points="986.8375,-599 799.5809,-599 799.5809,-563 986.8375,-563 986.8375,-599"/>
<text text-anchor="middle" x="893.2092" y="-577.7" font-family="Courier,monospace" font-size="11.00" fill="#000000">RequireCanvasPestParameter</text>
</g>
<!-- \\smtech\\StMarksSearch\\WordPress\\Pages\\PagesSearch -->
<g id="node8" class="node">
<title>\\smtech\\StMarksSearch\\WordPress\\Pages\\PagesSearch</title>
<polygon fill="none" stroke="#000000" points="677.6939,-405 589.4686,-405 589.4686,-369 677.6939,-369 677.6939,-405"/>
<text text-anchor="middle" x="633.5812" y="-383.7" font-family="Courier,monospace" font-size="11.00" fill="#000000">PagesSearch</text>
</g>
<!-- \\smtech\\StMarksSearch\\WordPress\\AbstractWordPressSearchDomain -->
<g id="node10" class="node">
<title>\\smtech\\StMarksSearch\\WordPress\\AbstractWordPressSearchDomain</title>
<polygon fill="none" stroke="#000000" points="463.826,-405 255.9628,-405 255.9628,-369 463.826,-369 463.826,-405"/>
<text text-anchor="start" x="326.889" y="-389.2" font-family="Courier,monospace" font-size="11.00" fill="#000000">«abstract»</text>
<text text-anchor="start" x="264.1788" y="-378.2" font-family="Courier,monospace" font-size="11.00" fill="#000000">AbstractWordPressSearchDomain</text>
</g>
<!-- \\smtech\\StMarksSearch\\WordPress\\Pages\\PagesSearch&#45;&gt;\\smtech\\StMarksSearch\\WordPress\\AbstractWordPressSearchDomain -->
<g id="edge6" class="edge">
<title>\\smtech\\StMarksSearch\\WordPress\\Pages\\PagesSearch&#45;&gt;\\smtech\\StMarksSearch\\WordPress\\AbstractWordPressSearchDomain</title>
<path fill="none" stroke="#000000" d="M589.3045,-387C557.9974,-387 514.5216,-387 473.8279,-387"/>
<polygon fill="none" stroke="#000000" points="473.8271,-383.5001 463.8271,-387 473.8271,-390.5001 473.8271,-383.5001"/>
</g>
<!-- \\smtech\\StMarksSearch\\WordPress\\Posts\\PostsSearch -->
<g id="node9" class="node">
<title>\\smtech\\StMarksSearch\\WordPress\\Posts\\PostsSearch</title>
<polygon fill="none" stroke="#000000" points="677.6939,-326 589.4686,-326 589.4686,-290 677.6939,-290 677.6939,-326"/>
<text text-anchor="middle" x="633.5812" y="-304.7" font-family="Courier,monospace" font-size="11.00" fill="#000000">PostsSearch</text>
</g>
<!-- \\smtech\\StMarksSearch\\WordPress\\Posts\\PostsSearch&#45;&gt;\\smtech\\StMarksSearch\\WordPress\\AbstractWordPressSearchDomain -->
<g id="edge11" class="edge">
<title>\\smtech\\StMarksSearch\\WordPress\\Posts\\PostsSearch&#45;&gt;\\smtech\\StMarksSearch\\WordPress\\AbstractWordPressSearchDomain</title>
<path fill="none" stroke="#000000" d="M589.3045,-320.7805C546.8967,-333.0216 482.1607,-351.7077 432.2567,-366.1126"/>
<polygon fill="none" stroke="#000000" points="431.1217,-362.7972 422.4846,-368.9333 433.063,-369.5226 431.1217,-362.7972"/>
</g>
<!-- \\smtech\\StMarksSearch\\WordPress\\AbstractWordPressSearchDomain&#45;&gt;\\smtech\\StMarksSearch\\AbstractSearchDomain -->
<g id="edge1" class="edge">
<title>\\smtech\\StMarksSearch\\WordPress\\AbstractWordPressSearchDomain&#45;&gt;\\smtech\\StMarksSearch\\AbstractSearchDomain</title>
<path fill="none" stroke="#000000" d="M263.7174,-405.0559C258.4448,-406.3209 253.2368,-407.6372 248.1788,-409 219.6795,-416.6784 188.6247,-427.1316 162.8298,-436.411"/>
<polygon fill="none" stroke="#000000" points="161.4222,-433.1985 153.2175,-439.9018 163.8116,-439.7781 161.4222,-433.1985"/>
</g>
<!-- \\smtech\\StMarksSearch\\WordPress\\WordPressPest -->
<g id="node11" class="node">
<title>\\smtech\\StMarksSearch\\WordPress\\WordPressPest</title>
<polygon fill="none" stroke="#000000" points="684.3954,-272 582.7671,-272 582.7671,-236 684.3954,-236 684.3954,-272"/>
<text text-anchor="middle" x="633.5812" y="-250.7" font-family="Courier,monospace" font-size="11.00" fill="#000000">WordPressPest</text>
</g>
<!-- \\Battis\\Educoder\\PestJSON -->
<g id="node22" class="node">
<title>\\Battis\\Educoder\\PestJSON</title>
<ellipse fill="none" stroke="#000000" cx="359.8944" cy="-18" rx="107.7459" ry="18"/>
<text text-anchor="middle" x="359.8944" y="-13.8" font-family="Times,serif" font-size="14.00" fill="#c0c0c0">\Battis\Educoder\PestJSON</text>
</g>
<!-- \\smtech\\StMarksSearch\\WordPress\\WordPressPest&#45;&gt;\\Battis\\Educoder\\PestJSON -->
<g id="edge7" class="edge">
<title>\\smtech\\StMarksSearch\\WordPress\\WordPressPest&#45;&gt;\\Battis\\Educoder\\PestJSON</title>
<path fill="none" stroke="#000000" d="M587.9291,-235.8763C568.7368,-226.5084 547.3065,-213.5318 531.7673,-197 486.8388,-149.202 515.194,-109.3202 467.7673,-64 455.9433,-52.7012 440.9186,-43.964 425.8659,-37.2933"/>
<polygon fill="none" stroke="#000000" points="427.0955,-34.014 416.5183,-33.4025 424.4055,-40.4766 427.0955,-34.014"/>
</g>
<!-- \\smtech\\StMarksSearch\\WordPress\\WordPressSearch -->
<g id="node12" class="node">
<title>\\smtech\\StMarksSearch\\WordPress\\WordPressSearch</title>
<polygon fill="none" stroke="#000000" points="691.0974,-476 576.0651,-476 576.0651,-440 691.0974,-440 691.0974,-476"/>
<text text-anchor="middle" x="633.5812" y="-454.7" font-family="Courier,monospace" font-size="11.00" fill="#000000">WordPressSearch</text>
</g>
<!-- \\smtech\\StMarksSearch\\WordPress\\WordPressSearch&#45;&gt;\\smtech\\StMarksSearch\\SearchEngine -->
<g id="edge13" class="edge">
<title>\\smtech\\StMarksSearch\\WordPress\\WordPressSearch&#45;&gt;\\smtech\\StMarksSearch\\SearchEngine</title>
<path fill="none" stroke="#000000" d="M576.7426,-476.1152C544.8853,-485.9353 504.3214,-497.8894 467.7673,-507 451.5641,-511.0384 433.8564,-514.8827 417.5584,-518.1951"/>
<polygon fill="none" stroke="#000000" points="416.7368,-514.7901 407.6188,-520.1857 418.1114,-521.6538 416.7368,-514.7901"/>
</g>
<!-- \\smtech\\StMarksSearch\\LibApps\\LibGuides\\LibGuidesSearch -->
<g id="node13" class="node">
<title>\\smtech\\StMarksSearch\\LibApps\\LibGuides\\LibGuidesSearch</title>
<polygon fill="none" stroke="#000000" points="691.0974,-166 576.0651,-166 576.0651,-130 691.0974,-130 691.0974,-166"/>
<text text-anchor="middle" x="633.5812" y="-144.7" font-family="Courier,monospace" font-size="11.00" fill="#000000">LibGuidesSearch</text>
</g>
<!-- \\smtech\\StMarksSearch\\LibApps\\AbstractLibAppsSearchDomain -->
<g id="node15" class="node">
<title>\\smtech\\StMarksSearch\\LibApps\\AbstractLibAppsSearchDomain</title>
<polygon fill="none" stroke="#000000" points="457.1235,-180 262.6652,-180 262.6652,-144 457.1235,-144 457.1235,-180"/>
<text text-anchor="start" x="326.889" y="-164.2" font-family="Courier,monospace" font-size="11.00" fill="#000000">«abstract»</text>
<text text-anchor="start" x="270.7799" y="-153.2" font-family="Courier,monospace" font-size="11.00" fill="#000000">AbstractLibAppsSearchDomain</text>
</g>
<!-- \\smtech\\StMarksSearch\\LibApps\\LibGuides\\LibGuidesSearch&#45;&gt;\\smtech\\StMarksSearch\\LibApps\\AbstractLibAppsSearchDomain -->
<g id="edge8" class="edge">
<title>\\smtech\\StMarksSearch\\LibApps\\LibGuides\\LibGuidesSearch&#45;&gt;\\smtech\\StMarksSearch\\LibApps\\AbstractLibAppsSearchDomain</title>
<path fill="none" stroke="#000000" d="M575.8737,-150.9519C544.408,-152.5615 504.4371,-154.6062 467.4588,-156.4977"/>
<polygon fill="none" stroke="#000000" points="466.9261,-153.0203 457.118,-157.0267 467.2837,-160.0112 466.9261,-153.0203"/>
</g>
<!-- \\smtech\\StMarksSearch\\LibApps\\LibAppsPest -->
<g id="node14" class="node">
<title>\\smtech\\StMarksSearch\\LibApps\\LibAppsPest</title>
<polygon fill="none" stroke="#000000" points="677.6939,-112 589.4686,-112 589.4686,-76 677.6939,-76 677.6939,-112"/>
<text text-anchor="middle" x="633.5812" y="-90.7" font-family="Courier,monospace" font-size="11.00" fill="#000000">LibAppsPest</text>
</g>
<!-- \\smtech\\StMarksSearch\\LibApps\\LibAppsPest&#45;&gt;\\Battis\\Educoder\\PestJSON -->
<g id="edge9" class="edge">
<title>\\smtech\\StMarksSearch\\LibApps\\LibAppsPest&#45;&gt;\\Battis\\Educoder\\PestJSON</title>
<path fill="none" stroke="#000000" d="M589.3045,-81.7048C544.911,-69.3772 476.0496,-50.2551 425.3481,-36.1758"/>
<polygon fill="none" stroke="#000000" points="426.0344,-32.734 415.4625,-33.4307 424.1614,-39.4788 426.0344,-32.734"/>
</g>
<!-- \\smtech\\StMarksSearch\\LibApps\\AbstractLibAppsSearchDomain&#45;&gt;\\smtech\\StMarksSearch\\AbstractSearchDomain -->
<g id="edge10" class="edge">
<title>\\smtech\\StMarksSearch\\LibApps\\AbstractLibAppsSearchDomain&#45;&gt;\\smtech\\StMarksSearch\\AbstractSearchDomain</title>
<path fill="none" stroke="#000000" d="M315.6005,-180.0211C293.5425,-190.5295 267.5267,-205.3979 248.1788,-224 183.7173,-285.9769 137.2242,-383.2253 117.1003,-430.4404"/>
<polygon fill="none" stroke="#000000" points="113.8463,-429.1498 113.2094,-439.7255 120.3024,-431.8553 113.8463,-429.1498"/>
</g>
<!-- \\smtech\\StMarksSearch\\SearchSource -->
<g id="node16" class="node">
<title>\\smtech\\StMarksSearch\\SearchSource</title>
<polygon fill="none" stroke="#000000" points="940.9223,-527 845.496,-527 845.496,-491 940.9223,-491 940.9223,-527"/>
<text text-anchor="middle" x="893.2092" y="-505.7" font-family="Courier,monospace" font-size="11.00" fill="#000000">SearchSource</text>
</g>
<!-- \\smtech\\StMarksSearch\\SearchResult -->
<g id="node18" class="node">
<title>\\smtech\\StMarksSearch\\SearchResult</title>
<polygon fill="none" stroke="#000000" points="940.9223,-456 845.496,-456 845.496,-420 940.9223,-420 940.9223,-456"/>
<text text-anchor="middle" x="893.2092" y="-434.7" font-family="Courier,monospace" font-size="11.00" fill="#000000">SearchResult</text>
</g>
<!-- \\smtech\\StMarksSearch\\Relevance -->
<g id="node19" class="node">
<title>\\smtech\\StMarksSearch\\Relevance</title>
<polygon fill="none" stroke="#000000" points="931.12,-367 855.2984,-367 855.2984,-331 931.12,-331 931.12,-367"/>
<text text-anchor="middle" x="893.2092" y="-345.7" font-family="Courier,monospace" font-size="11.00" fill="#000000">Relevance</text>
</g>
<!-- \\smtech\\StMarksSearch\\SearchEngine&#45;&gt;\\smtech\\StMarksSearch\\AbstractSearchDomain -->
<g id="edge15" class="edge">
<title>\\smtech\\StMarksSearch\\SearchEngine&#45;&gt;\\smtech\\StMarksSearch\\AbstractSearchDomain</title>
<path fill="none" stroke="#000000" d="M312.2705,-521.1135C292.3247,-517.4257 268.9836,-512.6053 248.1788,-507 219.6795,-499.3216 188.6247,-488.8684 162.8298,-479.589"/>
<polygon fill="none" stroke="#000000" points="163.8116,-476.2219 153.2175,-476.0982 161.4222,-482.8015 163.8116,-476.2219"/>
</g>
<!-- \\smtech\\StMarksSearch\\RequireParameter -->
<g id="node21" class="node">
<title>\\smtech\\StMarksSearch\\RequireParameter</title>
<polygon fill="none" stroke="#000000" points="953.827,-243 832.5914,-243 832.5914,-207 953.827,-207 953.827,-243"/>
<text text-anchor="middle" x="893.2092" y="-221.7" font-family="Courier,monospace" font-size="11.00" fill="#000000">RequireParameter</text>
</g>
</g>
</svg>
