<?xml version="1.0" encoding="UTF-8" standalone="no"?>
<!DOCTYPE svg PUBLIC "-//W3C//DTD SVG 1.1//EN"
 "http://www.w3.org/Graphics/SVG/1.1/DTD/svg11.dtd">
<!-- Generated by graphviz version 2.40.1 (20161225.0304)
 -->
<!-- Title: G Pages: 1 -->
<svg width="955pt" height="891pt"
 viewBox="0.00 0.00 955.31 891.00" xmlns="http://www.w3.org/2000/svg" xmlns:xlink="http://www.w3.org/1999/xlink">
<g id="graph0" class="graph" transform="scale(1 1) rotate(0) translate(4 887)">
<title>G</title>
<polygon fill="#ffffff" stroke="transparent" points="-4,4 -4,-887 951.3076,-887 951.3076,4 -4,4"/>
<g id="clust1" class="cluster">
<title>cluster_Global</title>
<path fill="none" stroke="#c0c0c0" d="M20,-44C20,-44 927.3076,-44 927.3076,-44 933.3076,-44 939.3076,-50 939.3076,-56 939.3076,-56 939.3076,-863 939.3076,-863 939.3076,-869 933.3076,-875 927.3076,-875 927.3076,-875 20,-875 20,-875 14,-875 8,-869 8,-863 8,-863 8,-56 8,-56 8,-50 14,-44 20,-44"/>
<text text-anchor="middle" x="473.6538" y="-862.2" font-family="Times,serif" font-size="11.00" fill="#c0c0c0">Global</text>
</g>
<g id="clust2" class="cluster">
<title>cluster_\smtech</title>
<path fill="none" stroke="#c0c0c0" d="M28,-52C28,-52 919.3076,-52 919.3076,-52 925.3076,-52 931.3076,-58 931.3076,-64 931.3076,-64 931.3076,-836 931.3076,-836 931.3076,-842 925.3076,-848 919.3076,-848 919.3076,-848 28,-848 28,-848 22,-848 16,-842 16,-836 16,-836 16,-64 16,-64 16,-58 22,-52 28,-52"/>
<text text-anchor="middle" x="473.6538" y="-835.2" font-family="Times,serif" font-size="11.00" fill="#c0c0c0">smtech</text>
</g>
<g id="clust3" class="cluster">
<title>cluster_\smtech\StMarksSearch</title>
<path fill="none" stroke="#c0c0c0" d="M36,-60C36,-60 911.3076,-60 911.3076,-60 917.3076,-60 923.3076,-66 923.3076,-72 923.3076,-72 923.3076,-809 923.3076,-809 923.3076,-815 917.3076,-821 911.3076,-821 911.3076,-821 36,-821 36,-821 30,-821 24,-815 24,-809 24,-809 24,-72 24,-72 24,-66 30,-60 36,-60"/>
<text text-anchor="middle" x="473.6538" y="-808.2" font-family="Times,serif" font-size="11.00" fill="#c0c0c0">StMarksSearch</text>
</g>
<g id="clust4" class="cluster">
<title>cluster_\smtech\StMarksSearch\WordPress</title>
<path fill="none" stroke="#c0c0c0" d="M260.1788,-509C260.1788,-509 687.0893,-509 687.0893,-509 693.0893,-509 699.0893,-515 699.0893,-521 699.0893,-521 699.0893,-782 699.0893,-782 699.0893,-788 693.0893,-794 687.0893,-794 687.0893,-794 260.1788,-794 260.1788,-794 254.1788,-794 248.1788,-788 248.1788,-782 248.1788,-782 248.1788,-521 248.1788,-521 248.1788,-515 254.1788,-509 260.1788,-509"/>
<text text-anchor="middle" x="473.634" y="-781.2" font-family="Times,serif" font-size="11.00" fill="#c0c0c0">WordPress</text>
</g>
<g id="clust5" class="cluster">
<title>cluster_\smtech\StMarksSearch\WordPress\Pages</title>
<path fill="none" stroke="#c0c0c0" d="M593.2753,-696C593.2753,-696 673.8871,-696 673.8871,-696 679.8871,-696 685.8871,-702 685.8871,-708 685.8871,-708 685.8871,-755 685.8871,-755 685.8871,-761 679.8871,-767 673.8871,-767 673.8871,-767 593.2753,-767 593.2753,-767 587.2753,-767 581.2753,-761 581.2753,-755 581.2753,-755 581.2753,-708 581.2753,-708 581.2753,-702 587.2753,-696 593.2753,-696"/>
<text text-anchor="middle" x="633.5812" y="-754.2" font-family="Times,serif" font-size="11.00" fill="#c0c0c0">Pages</text>
</g>
<g id="clust6" class="cluster">
<title>cluster_\smtech\StMarksSearch\WordPress\Posts</title>
<path fill="none" stroke="#c0c0c0" d="M593.2753,-617C593.2753,-617 673.8871,-617 673.8871,-617 679.8871,-617 685.8871,-623 685.8871,-629 685.8871,-629 685.8871,-676 685.8871,-676 685.8871,-682 679.8871,-688 673.8871,-688 673.8871,-688 593.2753,-688 593.2753,-688 587.2753,-688 581.2753,-682 581.2753,-676 581.2753,-676 581.2753,-629 581.2753,-629 581.2753,-623 587.2753,-617 593.2753,-617"/>
<text text-anchor="middle" x="633.5812" y="-675.2" font-family="Times,serif" font-size="11.00" fill="#c0c0c0">Posts</text>
</g>
<g id="clust7" class="cluster">
<title>cluster_\smtech\StMarksSearch\Canvas</title>
<path fill="none" stroke="#c0c0c0" d="M270.0804,-228C270.0804,-228 903.3076,-228 903.3076,-228 909.3076,-228 915.3076,-234 915.3076,-240 915.3076,-240 915.3076,-445 915.3076,-445 915.3076,-451 909.3076,-457 903.3076,-457 903.3076,-457 270.0804,-457 270.0804,-457 264.0804,-457 258.0804,-451 258.0804,-445 258.0804,-445 258.0804,-240 258.0804,-240 258.0804,-234 264.0804,-228 270.0804,-228"/>
<text text-anchor="middle" x="586.694" y="-444.2" font-family="Times,serif" font-size="11.00" fill="#c0c0c0">Canvas</text>
</g>
<g id="clust8" class="cluster">
<title>cluster_\smtech\StMarksSearch\Canvas\Courses</title>
<path fill="none" stroke="#c0c0c0" d="M543.7673,-236C543.7673,-236 895.3076,-236 895.3076,-236 901.3076,-236 907.3076,-242 907.3076,-248 907.3076,-248 907.3076,-374 907.3076,-374 907.3076,-380 901.3076,-386 895.3076,-386 895.3076,-386 543.7673,-386 543.7673,-386 537.7673,-386 531.7673,-380 531.7673,-374 531.7673,-374 531.7673,-248 531.7673,-248 531.7673,-242 537.7673,-236 543.7673,-236"/>
<text text-anchor="middle" x="719.5374" y="-373.2" font-family="Times,serif" font-size="11.00" fill="#c0c0c0">Courses</text>
</g>
<g id="clust9" class="cluster">
<title>cluster_\smtech\StMarksSearch\Canvas\Courses\Pages</title>
<path fill="none" stroke="#c0c0c0" d="M806.6957,-244C806.6957,-244 887.3076,-244 887.3076,-244 893.3076,-244 899.3076,-250 899.3076,-256 899.3076,-256 899.3076,-303 899.3076,-303 899.3076,-309 893.3076,-315 887.3076,-315 887.3076,-315 806.6957,-315 806.6957,-315 800.6957,-315 794.6957,-309 794.6957,-303 794.6957,-303 794.6957,-256 794.6957,-256 794.6957,-250 800.6957,-244 806.6957,-244"/>
<text text-anchor="middle" x="847.0016" y="-302.2" font-family="Times,serif" font-size="11.00" fill="#c0c0c0">Pages</text>
</g>
<g id="clust10" class="cluster">
<title>cluster_\smtech\StMarksSearch\LibApps</title>
<path fill="none" stroke="#c0c0c0" d="M266.7799,-68C266.7799,-68 695.0893,-68 695.0893,-68 701.0893,-68 707.0893,-74 707.0893,-80 707.0893,-80 707.0893,-208 707.0893,-208 707.0893,-214 701.0893,-220 695.0893,-220 695.0893,-220 266.7799,-220 266.7799,-220 260.7799,-220 254.7799,-214 254.7799,-208 254.7799,-208 254.7799,-80 254.7799,-80 254.7799,-74 260.7799,-68 266.7799,-68"/>
<text text-anchor="middle" x="480.9346" y="-207.2" font-family="Times,serif" font-size="11.00" fill="#c0c0c0">LibApps</text>
</g>
<g id="clust11" class="cluster">
<title>cluster_\smtech\StMarksSearch\LibApps\LibGuides</title>
<path fill="none" stroke="#c0c0c0" d="M580.0732,-122C580.0732,-122 687.0893,-122 687.0893,-122 693.0893,-122 699.0893,-128 699.0893,-134 699.0893,-134 699.0893,-181 699.0893,-181 699.0893,-187 693.0893,-193 687.0893,-193 687.0893,-193 580.0732,-193 580.0732,-193 574.0732,-193 568.0732,-187 568.0732,-181 568.0732,-181 568.0732,-134 568.0732,-134 568.0732,-128 574.0732,-122 580.0732,-122"/>
<text text-anchor="middle" x="633.5812" y="-180.2" font-family="Times,serif" font-size="11.00" fill="#c0c0c0">LibGuides</text>
</g>
<!-- \\smtech\\StMarksSearch\\WordPress\\Pages\\PagesSearch -->
<g id="node1" class="node">
<title>\\smtech\\StMarksSearch\\WordPress\\Pages\\PagesSearch</title>
<polygon fill="none" stroke="#000000" points="677.6939,-740 589.4686,-740 589.4686,-704 677.6939,-704 677.6939,-740"/>
<text text-anchor="middle" x="633.5812" y="-718.7" font-family="Courier,monospace" font-size="11.00" fill="#000000">PagesSearch</text>
</g>
<!-- \\smtech\\StMarksSearch\\WordPress\\AbstractWordPressSearchDomain -->
<g id="node3" class="node">
<title>\\smtech\\StMarksSearch\\WordPress\\AbstractWordPressSearchDomain</title>
<polygon fill="none" stroke="#000000" points="463.826,-661 255.9628,-661 255.9628,-625 463.826,-625 463.826,-661"/>
<text text-anchor="start" x="326.889" y="-645.2" font-family="Courier,monospace" font-size="11.00" fill="#000000">«abstract»</text>
<text text-anchor="start" x="264.1788" y="-634.2" font-family="Courier,monospace" font-size="11.00" fill="#000000">AbstractWordPressSearchDomain</text>
</g>
<!-- \\smtech\\StMarksSearch\\WordPress\\Pages\\PagesSearch&#45;&gt;\\smtech\\StMarksSearch\\WordPress\\AbstractWordPressSearchDomain -->
<g id="edge5" class="edge">
<title>\\smtech\\StMarksSearch\\WordPress\\Pages\\PagesSearch&#45;&gt;\\smtech\\StMarksSearch\\WordPress\\AbstractWordPressSearchDomain</title>
<path fill="none" stroke="#000000" d="M589.3045,-709.2195C546.8967,-696.9784 482.1607,-678.2923 432.2567,-663.8874"/>
<polygon fill="none" stroke="#000000" points="433.063,-660.4774 422.4846,-661.0667 431.1217,-667.2028 433.063,-660.4774"/>
</g>
<!-- \\smtech\\StMarksSearch\\WordPress\\Posts\\PostsSearch -->
<g id="node2" class="node">
<title>\\smtech\\StMarksSearch\\WordPress\\Posts\\PostsSearch</title>
<polygon fill="none" stroke="#000000" points="677.6939,-661 589.4686,-661 589.4686,-625 677.6939,-625 677.6939,-661"/>
<text text-anchor="middle" x="633.5812" y="-639.7" font-family="Courier,monospace" font-size="11.00" fill="#000000">PostsSearch</text>
</g>
<!-- \\smtech\\StMarksSearch\\WordPress\\Posts\\PostsSearch&#45;&gt;\\smtech\\StMarksSearch\\WordPress\\AbstractWordPressSearchDomain -->
<g id="edge10" class="edge">
<title>\\smtech\\StMarksSearch\\WordPress\\Posts\\PostsSearch&#45;&gt;\\smtech\\StMarksSearch\\WordPress\\AbstractWordPressSearchDomain</title>
<path fill="none" stroke="#000000" d="M589.3045,-643C557.9974,-643 514.5216,-643 473.8279,-643"/>
<polygon fill="none" stroke="#000000" points="473.8271,-639.5001 463.8271,-643 473.8271,-646.5001 473.8271,-639.5001"/>
</g>
<!-- \\smtech\\StMarksSearch\\AbstractSearchDomain -->
<g id="node15" class="node">
<title>\\smtech\\StMarksSearch\\AbstractSearchDomain</title>
<polygon fill="none" stroke="#000000" points="180.0322,-438 31.9893,-438 31.9893,-402 180.0322,-402 180.0322,-438"/>
<text text-anchor="start" x="73.0054" y="-422.2" font-family="Courier,monospace" font-size="11.00" fill="#000000">«abstract»</text>
<text text-anchor="start" x="40" y="-411.2" font-family="Courier,monospace" font-size="11.00" fill="#000000">AbstractSearchDomain</text>
</g>
<!-- \\smtech\\StMarksSearch\\WordPress\\AbstractWordPressSearchDomain&#45;&gt;\\smtech\\StMarksSearch\\AbstractSearchDomain -->
<g id="edge1" class="edge">
<title>\\smtech\\StMarksSearch\\WordPress\\AbstractWordPressSearchDomain&#45;&gt;\\smtech\\StMarksSearch\\AbstractSearchDomain</title>
<path fill="none" stroke="#000000" d="M256.1666,-625.6428C253.4201,-624.2106 250.7504,-622.6658 248.1788,-621 181.6433,-577.8996 136.8935,-491.7462 117.2866,-447.5474"/>
<polygon fill="none" stroke="#000000" points="120.457,-446.061 113.2708,-438.2758 114.0336,-448.8432 120.457,-446.061"/>
</g>
<!-- \\smtech\\StMarksSearch\\WordPress\\WordPressPest -->
<g id="node4" class="node">
<title>\\smtech\\StMarksSearch\\WordPress\\WordPressPest</title>
<polygon fill="none" stroke="#000000" points="684.3954,-553 582.7671,-553 582.7671,-517 684.3954,-517 684.3954,-553"/>
<text text-anchor="middle" x="633.5812" y="-531.7" font-family="Courier,monospace" font-size="11.00" fill="#000000">WordPressPest</text>
</g>
<!-- \\Battis\\Educoder\\PestJSON -->
<g id="node19" class="node">
<title>\\Battis\\Educoder\\PestJSON</title>
<ellipse fill="none" stroke="#000000" cx="359.8944" cy="-18" rx="107.7459" ry="18"/>
<text text-anchor="middle" x="359.8944" y="-13.8" font-family="Times,serif" font-size="14.00" fill="#c0c0c0">\Battis\Educoder\PestJSON</text>
</g>
<!-- \\smtech\\StMarksSearch\\WordPress\\WordPressPest&#45;&gt;\\Battis\\Educoder\\PestJSON -->
<g id="edge6" class="edge">
<title>\\smtech\\StMarksSearch\\WordPress\\WordPressPest&#45;&gt;\\Battis\\Educoder\\PestJSON</title>
<path fill="none" stroke="#000000" d="M595.4372,-516.8877C573.2659,-504.3373 546.8127,-485.4812 531.7673,-461 438.1889,-308.7344 577.8773,-204.7747 467.7673,-64 458.5949,-52.2732 445.8609,-43.4925 432.3485,-36.9317"/>
<polygon fill="none" stroke="#000000" points="433.4633,-33.5971 422.9035,-32.7353 430.621,-39.9941 433.4633,-33.5971"/>
</g>
<!-- \\smtech\\StMarksSearch\\WordPress\\WordPressSearch -->
<g id="node5" class="node">
<title>\\smtech\\StMarksSearch\\WordPress\\WordPressSearch</title>
<polygon fill="none" stroke="#000000" points="691.0974,-607 576.0651,-607 576.0651,-571 691.0974,-571 691.0974,-607"/>
<text text-anchor="middle" x="633.5812" y="-585.7" font-family="Courier,monospace" font-size="11.00" fill="#000000">WordPressSearch</text>
</g>
<!-- \\smtech\\StMarksSearch\\SearchEngine -->
<g id="node18" class="node">
<title>\\smtech\\StMarksSearch\\SearchEngine</title>
<polygon fill="none" stroke="#000000" points="407.6075,-501 312.1812,-501 312.1812,-465 407.6075,-465 407.6075,-501"/>
<text text-anchor="middle" x="359.8944" y="-479.7" font-family="Courier,monospace" font-size="11.00" fill="#000000">SearchEngine</text>
</g>
<!-- \\smtech\\StMarksSearch\\WordPress\\WordPressSearch&#45;&gt;\\smtech\\StMarksSearch\\SearchEngine -->
<g id="edge12" class="edge">
<title>\\smtech\\StMarksSearch\\WordPress\\WordPressSearch&#45;&gt;\\smtech\\StMarksSearch\\SearchEngine</title>
<path fill="none" stroke="#000000" d="M576.0461,-578.7372C561.0945,-574.7479 545.3766,-569.3189 531.7673,-562 498.2205,-543.959 501.8234,-522.06 467.7673,-505 452.4124,-497.3082 434.5474,-492.3056 417.8258,-489.052"/>
<polygon fill="none" stroke="#000000" points="418.0512,-485.5377 407.5947,-487.2438 416.8329,-492.4309 418.0512,-485.5377"/>
</g>
<!-- \\smtech\\StMarksSearch\\Canvas\\Courses\\Pages\\PagesSearch -->
<g id="node6" class="node">
<title>\\smtech\\StMarksSearch\\Canvas\\Courses\\Pages\\PagesSearch</title>
<polygon fill="none" stroke="#000000" points="891.1143,-288 802.889,-288 802.889,-252 891.1143,-252 891.1143,-288"/>
<text text-anchor="middle" x="847.0016" y="-266.7" font-family="Courier,monospace" font-size="11.00" fill="#000000">PagesSearch</text>
</g>
<!-- \\smtech\\StMarksSearch\\Canvas\\Courses\\AbstractCourseSearchDomain -->
<g id="node8" class="node">
<title>\\smtech\\StMarksSearch\\Canvas\\Courses\\AbstractCourseSearchDomain</title>
<polygon fill="none" stroke="#000000" points="727.2095,-323 539.9529,-323 539.9529,-287 727.2095,-287 727.2095,-323"/>
<text text-anchor="start" x="600.5759" y="-307.2" font-family="Courier,monospace" font-size="11.00" fill="#000000">«abstract»</text>
<text text-anchor="start" x="547.7673" y="-296.2" font-family="Courier,monospace" font-size="11.00" fill="#000000">AbstractCourseSearchDomain</text>
</g>
<!-- \\smtech\\StMarksSearch\\Canvas\\Courses\\Pages\\PagesSearch&#45;&gt;\\smtech\\StMarksSearch\\Canvas\\Courses\\AbstractCourseSearchDomain -->
<g id="edge4" class="edge">
<title>\\smtech\\StMarksSearch\\Canvas\\Courses\\Pages\\PagesSearch&#45;&gt;\\smtech\\StMarksSearch\\Canvas\\Courses\\AbstractCourseSearchDomain</title>
<path fill="none" stroke="#000000" d="M802.7808,-277.252C783.7432,-280.3741 760.6085,-284.1681 737.6379,-287.9352"/>
<polygon fill="none" stroke="#000000" points="736.7664,-284.5312 727.4647,-289.6035 737.8993,-291.439 736.7664,-284.5312"/>
</g>
<!-- \\smtech\\StMarksSearch\\Canvas\\Courses\\CourseSearch -->
<g id="node7" class="node">
<title>\\smtech\\StMarksSearch\\Canvas\\Courses\\CourseSearch</title>
<polygon fill="none" stroke="#000000" points="894.7148,-359 799.2885,-359 799.2885,-323 894.7148,-323 894.7148,-359"/>
<text text-anchor="middle" x="847.0016" y="-337.7" font-family="Courier,monospace" font-size="11.00" fill="#000000">CourseSearch</text>
</g>
<!-- \\smtech\\StMarksSearch\\Canvas\\AbstractCanvasSearch -->
<g id="node9" class="node">
<title>\\smtech\\StMarksSearch\\Canvas\\AbstractCanvasSearch</title>
<polygon fill="none" stroke="#000000" points="707.6027,-430 559.5597,-430 559.5597,-394 707.6027,-394 707.6027,-430"/>
<text text-anchor="start" x="600.5759" y="-414.2" font-family="Courier,monospace" font-size="11.00" fill="#000000">«abstract»</text>
<text text-anchor="start" x="567.5705" y="-403.2" font-family="Courier,monospace" font-size="11.00" fill="#000000">AbstractCanvasSearch</text>
</g>
<!-- \\smtech\\StMarksSearch\\Canvas\\Courses\\CourseSearch&#45;&gt;\\smtech\\StMarksSearch\\Canvas\\AbstractCanvasSearch -->
<g id="edge3" class="edge">
<title>\\smtech\\StMarksSearch\\Canvas\\Courses\\CourseSearch&#45;&gt;\\smtech\\StMarksSearch\\Canvas\\AbstractCanvasSearch</title>
<path fill="none" stroke="#000000" d="M807.4461,-359.0549C784.421,-369.0948 754.6461,-381.2833 727.3952,-390 724.1089,-391.0512 720.7431,-392.0758 717.3321,-393.0713"/>
<polygon fill="none" stroke="#000000" points="716.3084,-389.7233 707.6277,-395.7976 718.2016,-396.4624 716.3084,-389.7233"/>
</g>
<!-- \\smtech\\StMarksSearch\\Canvas\\AbstractCanvasSearchDomain -->
<g id="node10" class="node">
<title>\\smtech\\StMarksSearch\\Canvas\\AbstractCanvasSearchDomain</title>
<polygon fill="none" stroke="#000000" points="453.5227,-376 266.2661,-376 266.2661,-340 453.5227,-340 453.5227,-376"/>
<text text-anchor="start" x="326.889" y="-360.2" font-family="Courier,monospace" font-size="11.00" fill="#000000">«abstract»</text>
<text text-anchor="start" x="274.0804" y="-349.2" font-family="Courier,monospace" font-size="11.00" fill="#000000">AbstractCanvasSearchDomain</text>
</g>
<!-- \\smtech\\StMarksSearch\\Canvas\\Courses\\AbstractCourseSearchDomain&#45;&gt;\\smtech\\StMarksSearch\\Canvas\\AbstractCanvasSearchDomain -->
<g id="edge13" class="edge">
<title>\\smtech\\StMarksSearch\\Canvas\\Courses\\AbstractCourseSearchDomain&#45;&gt;\\smtech\\StMarksSearch\\Canvas\\AbstractCanvasSearchDomain</title>
<path fill="none" stroke="#000000" d="M540.5415,-323.0173C515.6429,-327.839 488.5815,-333.0795 463.1667,-338.0011"/>
<polygon fill="none" stroke="#000000" points="462.2938,-334.605 453.1417,-339.9425 463.6247,-341.4774 462.2938,-334.605"/>
</g>
<!-- \\smtech\\StMarksSearch\\Canvas\\AbstractCanvasSearch&#45;&gt;\\smtech\\StMarksSearch\\SearchEngine -->
<g id="edge2" class="edge">
<title>\\smtech\\StMarksSearch\\Canvas\\AbstractCanvasSearch&#45;&gt;\\smtech\\StMarksSearch\\SearchEngine</title>
<path fill="none" stroke="#000000" d="M576.7426,-430.1152C544.8853,-439.9353 504.3214,-451.8894 467.7673,-461 451.5641,-465.0384 433.8564,-468.8827 417.5584,-472.1951"/>
<polygon fill="none" stroke="#000000" points="416.7368,-468.7901 407.6188,-474.1857 418.1114,-475.6538 416.7368,-468.7901"/>
</g>
<!-- \\smtech\\StMarksSearch\\Canvas\\AbstractCanvasSearchDomain&#45;&gt;\\smtech\\StMarksSearch\\AbstractSearchDomain -->
<g id="edge11" class="edge">
<title>\\smtech\\StMarksSearch\\Canvas\\AbstractCanvasSearchDomain&#45;&gt;\\smtech\\StMarksSearch\\AbstractSearchDomain</title>
<path fill="none" stroke="#000000" d="M266.2087,-375.8786C260.0958,-377.2212 254.0431,-378.6 248.1788,-380 224.3929,-385.6787 198.5973,-392.6781 175.591,-399.2259"/>
<polygon fill="none" stroke="#000000" points="174.5644,-395.8791 165.916,-401.9993 176.4933,-402.6081 174.5644,-395.8791"/>
</g>
<!-- \\smtech\\StMarksSearch\\LibApps\\LibGuides\\LibGuidesSearch -->
<g id="node11" class="node">
<title>\\smtech\\StMarksSearch\\LibApps\\LibGuides\\LibGuidesSearch</title>
<polygon fill="none" stroke="#000000" points="691.0974,-166 576.0651,-166 576.0651,-130 691.0974,-130 691.0974,-166"/>
<text text-anchor="middle" x="633.5812" y="-144.7" font-family="Courier,monospace" font-size="11.00" fill="#000000">LibGuidesSearch</text>
</g>
<!-- \\smtech\\StMarksSearch\\LibApps\\AbstractLibAppsSearchDomain -->
<g id="node13" class="node">
<title>\\smtech\\StMarksSearch\\LibApps\\AbstractLibAppsSearchDomain</title>
<polygon fill="none" stroke="#000000" points="457.1235,-180 262.6652,-180 262.6652,-144 457.1235,-144 457.1235,-180"/>
<text text-anchor="start" x="326.889" y="-164.2" font-family="Courier,monospace" font-size="11.00" fill="#000000">«abstract»</text>
<text text-anchor="start" x="270.7799" y="-153.2" font-family="Courier,monospace" font-size="11.00" fill="#000000">AbstractLibAppsSearchDomain</text>
</g>
<!-- \\smtech\\StMarksSearch\\LibApps\\LibGuides\\LibGuidesSearch&#45;&gt;\\smtech\\StMarksSearch\\LibApps\\AbstractLibAppsSearchDomain -->
<g id="edge7" class="edge">
<title>\\smtech\\StMarksSearch\\LibApps\\LibGuides\\LibGuidesSearch&#45;&gt;\\smtech\\StMarksSearch\\LibApps\\AbstractLibAppsSearchDomain</title>
<path fill="none" stroke="#000000" d="M575.8737,-150.9519C544.408,-152.5615 504.4371,-154.6062 467.4588,-156.4977"/>
<polygon fill="none" stroke="#000000" points="466.9261,-153.0203 457.118,-157.0267 467.2837,-160.0112 466.9261,-153.0203"/>
</g>
<!-- \\smtech\\StMarksSearch\\LibApps\\LibAppsPest -->
<g id="node12" class="node">
<title>\\smtech\\StMarksSearch\\LibApps\\LibAppsPest</title>
<polygon fill="none" stroke="#000000" points="677.6939,-112 589.4686,-112 589.4686,-76 677.6939,-76 677.6939,-112"/>
<text text-anchor="middle" x="633.5812" y="-90.7" font-family="Courier,monospace" font-size="11.00" fill="#000000">LibAppsPest</text>
</g>
<!-- \\smtech\\StMarksSearch\\LibApps\\LibAppsPest&#45;&gt;\\Battis\\Educoder\\PestJSON -->
<g id="edge8" class="edge">
<title>\\smtech\\StMarksSearch\\LibApps\\LibAppsPest&#45;&gt;\\Battis\\Educoder\\PestJSON</title>
<path fill="none" stroke="#000000" d="M589.3045,-81.7048C544.911,-69.3772 476.0496,-50.2551 425.3481,-36.1758"/>
<polygon fill="none" stroke="#000000" points="426.0344,-32.734 415.4625,-33.4307 424.1614,-39.4788 426.0344,-32.734"/>
</g>
<!-- \\smtech\\StMarksSearch\\LibApps\\AbstractLibAppsSearchDomain&#45;&gt;\\smtech\\StMarksSearch\\AbstractSearchDomain -->
<g id="edge9" class="edge">
<title>\\smtech\\StMarksSearch\\LibApps\\AbstractLibAppsSearchDomain&#45;&gt;\\smtech\\StMarksSearch\\AbstractSearchDomain</title>
<path fill="none" stroke="#000000" d="M317.5716,-180.0353C295.4048,-190.7666 268.6843,-205.8346 248.1788,-224 190.963,-274.6864 143.3008,-352.2542 120.487,-392.9435"/>
<polygon fill="none" stroke="#000000" points="117.3931,-391.3059 115.6153,-401.7505 123.5184,-394.6942 117.3931,-391.3059"/>
</g>
<!-- \\smtech\\StMarksSearch\\SearchSource -->
<g id="node14" class="node">
<title>\\smtech\\StMarksSearch\\SearchSource</title>
<polygon fill="none" stroke="#000000" points="894.7148,-219 799.2885,-219 799.2885,-183 894.7148,-183 894.7148,-219"/>
<text text-anchor="middle" x="847.0016" y="-197.7" font-family="Courier,monospace" font-size="11.00" fill="#000000">SearchSource</text>
</g>
<!-- \\smtech\\StMarksSearch\\SearchResult -->
<g id="node16" class="node">
<title>\\smtech\\StMarksSearch\\SearchResult</title>
<polygon fill="none" stroke="#000000" points="894.7148,-164 799.2885,-164 799.2885,-128 894.7148,-128 894.7148,-164"/>
<text text-anchor="middle" x="847.0016" y="-142.7" font-family="Courier,monospace" font-size="11.00" fill="#000000">SearchResult</text>
</g>
<!-- \\smtech\\StMarksSearch\\Relevance -->
<g id="node17" class="node">
<title>\\smtech\\StMarksSearch\\Relevance</title>
<polygon fill="none" stroke="#000000" points="884.9124,-108 809.0909,-108 809.0909,-72 884.9124,-72 884.9124,-108"/>
<text text-anchor="middle" x="847.0016" y="-86.7" font-family="Courier,monospace" font-size="11.00" fill="#000000">Relevance</text>
</g>
<!-- \\smtech\\StMarksSearch\\SearchEngine&#45;&gt;\\smtech\\StMarksSearch\\AbstractSearchDomain -->
<g id="edge14" class="edge">
<title>\\smtech\\StMarksSearch\\SearchEngine&#45;&gt;\\smtech\\StMarksSearch\\AbstractSearchDomain</title>
<path fill="none" stroke="#000000" d="M312.1312,-474.5335C292.2672,-470.7693 269.024,-466.0483 248.1788,-461 223.9305,-455.1275 197.6178,-447.8094 174.2975,-440.988"/>
<polygon fill="none" stroke="#000000" points="175.0826,-437.5706 164.501,-438.1006 173.1035,-444.285 175.0826,-437.5706"/>
</g>
</g>
</svg>
