<?xml version="1.0" encoding="UTF-8" standalone="no"?>
<!DOCTYPE svg PUBLIC "-//W3C//DTD SVG 1.1//EN"
 "http://www.w3.org/Graphics/SVG/1.1/DTD/svg11.dtd">
<!-- Generated by graphviz version 2.40.1 (20161225.0304)
 -->
<!-- Title: G Pages: 1 -->
<svg width="1005pt" height="970pt"
 viewBox="0.00 0.00 1004.82 970.00" xmlns="http://www.w3.org/2000/svg" xmlns:xlink="http://www.w3.org/1999/xlink">
<g id="graph0" class="graph" transform="scale(1 1) rotate(0) translate(4 966)">
<title>G</title>
<polygon fill="#ffffff" stroke="transparent" points="-4,4 -4,-966 1000.8156,-966 1000.8156,4 -4,4"/>
<g id="clust1" class="cluster">
<title>cluster_Global</title>
<path fill="none" stroke="#c0c0c0" d="M20,-44C20,-44 976.8156,-44 976.8156,-44 982.8156,-44 988.8156,-50 988.8156,-56 988.8156,-56 988.8156,-942 988.8156,-942 988.8156,-948 982.8156,-954 976.8156,-954 976.8156,-954 20,-954 20,-954 14,-954 8,-948 8,-942 8,-942 8,-56 8,-56 8,-50 14,-44 20,-44"/>
<text text-anchor="middle" x="498.4078" y="-941.2" font-family="Times,serif" font-size="11.00" fill="#c0c0c0">Global</text>
</g>
<g id="clust2" class="cluster">
<title>cluster_\smtech</title>
<path fill="none" stroke="#c0c0c0" d="M28,-52C28,-52 968.8156,-52 968.8156,-52 974.8156,-52 980.8156,-58 980.8156,-64 980.8156,-64 980.8156,-915 980.8156,-915 980.8156,-921 974.8156,-927 968.8156,-927 968.8156,-927 28,-927 28,-927 22,-927 16,-921 16,-915 16,-915 16,-64 16,-64 16,-58 22,-52 28,-52"/>
<text text-anchor="middle" x="498.4078" y="-914.2" font-family="Times,serif" font-size="11.00" fill="#c0c0c0">smtech</text>
</g>
<g id="clust3" class="cluster">
<title>cluster_\smtech\StMarksSearch</title>
<path fill="none" stroke="#c0c0c0" d="M36,-60C36,-60 960.8156,-60 960.8156,-60 966.8156,-60 972.8156,-66 972.8156,-72 972.8156,-72 972.8156,-888 972.8156,-888 972.8156,-894 966.8156,-900 960.8156,-900 960.8156,-900 36,-900 36,-900 30,-900 24,-894 24,-888 24,-888 24,-72 24,-72 24,-66 30,-60 36,-60"/>
<text text-anchor="middle" x="498.4078" y="-887.2" font-family="Times,serif" font-size="11.00" fill="#c0c0c0">StMarksSearch</text>
</g>
<g id="clust4" class="cluster">
<title>cluster_\smtech\StMarksSearch\WordPress</title>
<path fill="none" stroke="#c0c0c0" d="M260.1788,-588C260.1788,-588 687.0893,-588 687.0893,-588 693.0893,-588 699.0893,-594 699.0893,-600 699.0893,-600 699.0893,-861 699.0893,-861 699.0893,-867 693.0893,-873 687.0893,-873 687.0893,-873 260.1788,-873 260.1788,-873 254.1788,-873 248.1788,-867 248.1788,-861 248.1788,-861 248.1788,-600 248.1788,-600 248.1788,-594 254.1788,-588 260.1788,-588"/>
<text text-anchor="middle" x="473.634" y="-860.2" font-family="Times,serif" font-size="11.00" fill="#c0c0c0">WordPress</text>
</g>
<g id="clust5" class="cluster">
<title>cluster_\smtech\StMarksSearch\WordPress\Pages</title>
<path fill="none" stroke="#c0c0c0" d="M593.2753,-775C593.2753,-775 673.8871,-775 673.8871,-775 679.8871,-775 685.8871,-781 685.8871,-787 685.8871,-787 685.8871,-834 685.8871,-834 685.8871,-840 679.8871,-846 673.8871,-846 673.8871,-846 593.2753,-846 593.2753,-846 587.2753,-846 581.2753,-840 581.2753,-834 581.2753,-834 581.2753,-787 581.2753,-787 581.2753,-781 587.2753,-775 593.2753,-775"/>
<text text-anchor="middle" x="633.5812" y="-833.2" font-family="Times,serif" font-size="11.00" fill="#c0c0c0">Pages</text>
</g>
<g id="clust6" class="cluster">
<title>cluster_\smtech\StMarksSearch\WordPress\Posts</title>
<path fill="none" stroke="#c0c0c0" d="M593.2753,-696C593.2753,-696 673.8871,-696 673.8871,-696 679.8871,-696 685.8871,-702 685.8871,-708 685.8871,-708 685.8871,-755 685.8871,-755 685.8871,-761 679.8871,-767 673.8871,-767 673.8871,-767 593.2753,-767 593.2753,-767 587.2753,-767 581.2753,-761 581.2753,-755 581.2753,-755 581.2753,-708 581.2753,-708 581.2753,-702 587.2753,-696 593.2753,-696"/>
<text text-anchor="middle" x="633.5812" y="-754.2" font-family="Times,serif" font-size="11.00" fill="#c0c0c0">Posts</text>
</g>
<g id="clust7" class="cluster">
<title>cluster_\smtech\StMarksSearch\Canvas</title>
<path fill="none" stroke="#c0c0c0" d="M270.0804,-228C270.0804,-228 952.8156,-228 952.8156,-228 958.8156,-228 964.8156,-234 964.8156,-240 964.8156,-240 964.8156,-524 964.8156,-524 964.8156,-530 958.8156,-536 952.8156,-536 952.8156,-536 270.0804,-536 270.0804,-536 264.0804,-536 258.0804,-530 258.0804,-524 258.0804,-524 258.0804,-240 258.0804,-240 258.0804,-234 264.0804,-228 270.0804,-228"/>
<text text-anchor="middle" x="611.448" y="-523.2" font-family="Times,serif" font-size="11.00" fill="#c0c0c0">Canvas</text>
</g>
<g id="clust8" class="cluster">
<title>cluster_\smtech\StMarksSearch\Canvas\Courses</title>
<path fill="none" stroke="#c0c0c0" d="M543.7673,-236C543.7673,-236 944.8156,-236 944.8156,-236 950.8156,-236 956.8156,-242 956.8156,-248 956.8156,-248 956.8156,-453 956.8156,-453 956.8156,-459 950.8156,-465 944.8156,-465 944.8156,-465 543.7673,-465 543.7673,-465 537.7673,-465 531.7673,-459 531.7673,-453 531.7673,-453 531.7673,-248 531.7673,-248 531.7673,-242 537.7673,-236 543.7673,-236"/>
<text text-anchor="middle" x="744.2914" y="-452.2" font-family="Times,serif" font-size="11.00" fill="#c0c0c0">Courses</text>
</g>
<g id="clust9" class="cluster">
<title>cluster_\smtech\StMarksSearch\Canvas\Courses\Announcements</title>
<path fill="none" stroke="#c0c0c0" d="M803.3952,-323C803.3952,-323 936.8156,-323 936.8156,-323 942.8156,-323 948.8156,-329 948.8156,-335 948.8156,-335 948.8156,-382 948.8156,-382 948.8156,-388 942.8156,-394 936.8156,-394 936.8156,-394 803.3952,-394 803.3952,-394 797.3952,-394 791.3952,-388 791.3952,-382 791.3952,-382 791.3952,-335 791.3952,-335 791.3952,-329 797.3952,-323 803.3952,-323"/>
<text text-anchor="middle" x="870.1054" y="-381.2" font-family="Times,serif" font-size="11.00" fill="#c0c0c0">Announcements</text>
</g>
<g id="clust10" class="cluster">
<title>cluster_\smtech\StMarksSearch\Canvas\Courses\Pages</title>
<path fill="none" stroke="#c0c0c0" d="M829.7995,-244C829.7995,-244 910.4113,-244 910.4113,-244 916.4113,-244 922.4113,-250 922.4113,-256 922.4113,-256 922.4113,-303 922.4113,-303 922.4113,-309 916.4113,-315 910.4113,-315 910.4113,-315 829.7995,-315 829.7995,-315 823.7995,-315 817.7995,-309 817.7995,-303 817.7995,-303 817.7995,-256 817.7995,-256 817.7995,-250 823.7995,-244 829.7995,-244"/>
<text text-anchor="middle" x="870.1054" y="-302.2" font-family="Times,serif" font-size="11.00" fill="#c0c0c0">Pages</text>
</g>
<g id="clust11" class="cluster">
<title>cluster_\smtech\StMarksSearch\LibApps</title>
<path fill="none" stroke="#c0c0c0" d="M266.7799,-68C266.7799,-68 695.0893,-68 695.0893,-68 701.0893,-68 707.0893,-74 707.0893,-80 707.0893,-80 707.0893,-208 707.0893,-208 707.0893,-214 701.0893,-220 695.0893,-220 695.0893,-220 266.7799,-220 266.7799,-220 260.7799,-220 254.7799,-214 254.7799,-208 254.7799,-208 254.7799,-80 254.7799,-80 254.7799,-74 260.7799,-68 266.7799,-68"/>
<text text-anchor="middle" x="480.9346" y="-207.2" font-family="Times,serif" font-size="11.00" fill="#c0c0c0">LibApps</text>
</g>
<g id="clust12" class="cluster">
<title>cluster_\smtech\StMarksSearch\LibApps\LibGuides</title>
<path fill="none" stroke="#c0c0c0" d="M580.0732,-122C580.0732,-122 687.0893,-122 687.0893,-122 693.0893,-122 699.0893,-128 699.0893,-134 699.0893,-134 699.0893,-181 699.0893,-181 699.0893,-187 693.0893,-193 687.0893,-193 687.0893,-193 580.0732,-193 580.0732,-193 574.0732,-193 568.0732,-187 568.0732,-181 568.0732,-181 568.0732,-134 568.0732,-134 568.0732,-128 574.0732,-122 580.0732,-122"/>
<text text-anchor="middle" x="633.5812" y="-180.2" font-family="Times,serif" font-size="11.00" fill="#c0c0c0">LibGuides</text>
</g>
<!-- \\smtech\\StMarksSearch\\WordPress\\Pages\\PagesSearch -->
<g id="node1" class="node">
<title>\\smtech\\StMarksSearch\\WordPress\\Pages\\PagesSearch</title>
<polygon fill="none" stroke="#000000" points="677.6939,-819 589.4686,-819 589.4686,-783 677.6939,-783 677.6939,-819"/>
<text text-anchor="middle" x="633.5812" y="-797.7" font-family="Courier,monospace" font-size="11.00" fill="#000000">PagesSearch</text>
</g>
<!-- \\smtech\\StMarksSearch\\WordPress\\AbstractWordPressSearchDomain -->
<g id="node3" class="node">
<title>\\smtech\\StMarksSearch\\WordPress\\AbstractWordPressSearchDomain</title>
<polygon fill="none" stroke="#000000" points="463.826,-740 255.9628,-740 255.9628,-704 463.826,-704 463.826,-740"/>
<text text-anchor="start" x="326.889" y="-724.2" font-family="Courier,monospace" font-size="11.00" fill="#000000">«abstract»</text>
<text text-anchor="start" x="264.1788" y="-713.2" font-family="Courier,monospace" font-size="11.00" fill="#000000">AbstractWordPressSearchDomain</text>
</g>
<!-- \\smtech\\StMarksSearch\\WordPress\\Pages\\PagesSearch&#45;&gt;\\smtech\\StMarksSearch\\WordPress\\AbstractWordPressSearchDomain -->
<g id="edge6" class="edge">
<title>\\smtech\\StMarksSearch\\WordPress\\Pages\\PagesSearch&#45;&gt;\\smtech\\StMarksSearch\\WordPress\\AbstractWordPressSearchDomain</title>
<path fill="none" stroke="#000000" d="M589.3045,-788.2195C546.8967,-775.9784 482.1607,-757.2923 432.2567,-742.8874"/>
<polygon fill="none" stroke="#000000" points="433.063,-739.4774 422.4846,-740.0667 431.1217,-746.2028 433.063,-739.4774"/>
</g>
<!-- \\smtech\\StMarksSearch\\WordPress\\Posts\\PostsSearch -->
<g id="node2" class="node">
<title>\\smtech\\StMarksSearch\\WordPress\\Posts\\PostsSearch</title>
<polygon fill="none" stroke="#000000" points="677.6939,-740 589.4686,-740 589.4686,-704 677.6939,-704 677.6939,-740"/>
<text text-anchor="middle" x="633.5812" y="-718.7" font-family="Courier,monospace" font-size="11.00" fill="#000000">PostsSearch</text>
</g>
<!-- \\smtech\\StMarksSearch\\WordPress\\Posts\\PostsSearch&#45;&gt;\\smtech\\StMarksSearch\\WordPress\\AbstractWordPressSearchDomain -->
<g id="edge11" class="edge">
<title>\\smtech\\StMarksSearch\\WordPress\\Posts\\PostsSearch&#45;&gt;\\smtech\\StMarksSearch\\WordPress\\AbstractWordPressSearchDomain</title>
<path fill="none" stroke="#000000" d="M589.3045,-722C557.9974,-722 514.5216,-722 473.8279,-722"/>
<polygon fill="none" stroke="#000000" points="473.8271,-718.5001 463.8271,-722 473.8271,-725.5001 473.8271,-718.5001"/>
</g>
<!-- \\smtech\\StMarksSearch\\AbstractSearchDomain -->
<g id="node16" class="node">
<title>\\smtech\\StMarksSearch\\AbstractSearchDomain</title>
<polygon fill="none" stroke="#000000" points="180.0322,-509 31.9893,-509 31.9893,-473 180.0322,-473 180.0322,-509"/>
<text text-anchor="start" x="73.0054" y="-493.2" font-family="Courier,monospace" font-size="11.00" fill="#000000">«abstract»</text>
<text text-anchor="start" x="40" y="-482.2" font-family="Courier,monospace" font-size="11.00" fill="#000000">AbstractSearchDomain</text>
</g>
<!-- \\smtech\\StMarksSearch\\WordPress\\AbstractWordPressSearchDomain&#45;&gt;\\smtech\\StMarksSearch\\AbstractSearchDomain -->
<g id="edge1" class="edge">
<title>\\smtech\\StMarksSearch\\WordPress\\AbstractWordPressSearchDomain&#45;&gt;\\smtech\\StMarksSearch\\AbstractSearchDomain</title>
<path fill="none" stroke="#000000" d="M256.126,-704.7048C253.3913,-703.2546 250.735,-701.6892 248.1788,-700 179.7634,-654.789 135.4767,-564.2207 116.5467,-518.6019"/>
<polygon fill="none" stroke="#000000" points="119.6822,-517.0194 112.6874,-509.0618 113.193,-519.6445 119.6822,-517.0194"/>
</g>
<!-- \\smtech\\StMarksSearch\\WordPress\\WordPressPest -->
<g id="node4" class="node">
<title>\\smtech\\StMarksSearch\\WordPress\\WordPressPest</title>
<polygon fill="none" stroke="#000000" points="684.3954,-632 582.7671,-632 582.7671,-596 684.3954,-596 684.3954,-632"/>
<text text-anchor="middle" x="633.5812" y="-610.7" font-family="Courier,monospace" font-size="11.00" fill="#000000">WordPressPest</text>
</g>
<!-- \\Battis\\Educoder\\PestJSON -->
<g id="node20" class="node">
<title>\\Battis\\Educoder\\PestJSON</title>
<ellipse fill="none" stroke="#000000" cx="359.8944" cy="-18" rx="107.7459" ry="18"/>
<text text-anchor="middle" x="359.8944" y="-13.8" font-family="Times,serif" font-size="14.00" fill="#c0c0c0">\Battis\Educoder\PestJSON</text>
</g>
<!-- \\smtech\\StMarksSearch\\WordPress\\WordPressPest&#45;&gt;\\Battis\\Educoder\\PestJSON -->
<g id="edge7" class="edge">
<title>\\smtech\\StMarksSearch\\WordPress\\WordPressPest&#45;&gt;\\Battis\\Educoder\\PestJSON</title>
<path fill="none" stroke="#000000" d="M594.9548,-595.8831C572.7518,-583.3834 546.435,-564.5822 531.7673,-540 422.3911,-356.6924 597.0662,-233.843 467.7673,-64 458.7993,-52.2199 446.222,-43.4206 432.8096,-36.8591"/>
<polygon fill="none" stroke="#000000" points="433.9825,-33.5498 423.4247,-32.665 431.1264,-39.9406 433.9825,-33.5498"/>
</g>
<!-- \\smtech\\StMarksSearch\\WordPress\\WordPressSearch -->
<g id="node5" class="node">
<title>\\smtech\\StMarksSearch\\WordPress\\WordPressSearch</title>
<polygon fill="none" stroke="#000000" points="691.0974,-686 576.0651,-686 576.0651,-650 691.0974,-650 691.0974,-686"/>
<text text-anchor="middle" x="633.5812" y="-664.7" font-family="Courier,monospace" font-size="11.00" fill="#000000">WordPressSearch</text>
</g>
<!-- \\smtech\\StMarksSearch\\SearchEngine -->
<g id="node19" class="node">
<title>\\smtech\\StMarksSearch\\SearchEngine</title>
<polygon fill="none" stroke="#000000" points="407.6075,-580 312.1812,-580 312.1812,-544 407.6075,-544 407.6075,-580"/>
<text text-anchor="middle" x="359.8944" y="-558.7" font-family="Courier,monospace" font-size="11.00" fill="#000000">SearchEngine</text>
</g>
<!-- \\smtech\\StMarksSearch\\WordPress\\WordPressSearch&#45;&gt;\\smtech\\StMarksSearch\\SearchEngine -->
<g id="edge13" class="edge">
<title>\\smtech\\StMarksSearch\\WordPress\\WordPressSearch&#45;&gt;\\smtech\\StMarksSearch\\SearchEngine</title>
<path fill="none" stroke="#000000" d="M576.0461,-657.7372C561.0945,-653.7479 545.3766,-648.3189 531.7673,-641 498.2205,-622.959 501.8234,-601.06 467.7673,-584 452.4124,-576.3082 434.5474,-571.3056 417.8258,-568.052"/>
<polygon fill="none" stroke="#000000" points="418.0512,-564.5377 407.5947,-566.2438 416.8329,-571.4309 418.0512,-564.5377"/>
</g>
<!-- \\smtech\\StMarksSearch\\Canvas\\Courses\\Announcements\\AnnouncementsSearch -->
<g id="node6" class="node">
<title>\\smtech\\StMarksSearch\\Canvas\\Courses\\Announcements\\AnnouncementsSearch</title>
<polygon fill="none" stroke="#000000" points="941.0264,-367 799.1844,-367 799.1844,-331 941.0264,-331 941.0264,-367"/>
<text text-anchor="middle" x="870.1054" y="-345.7" font-family="Courier,monospace" font-size="11.00" fill="#000000">AnnouncementsSearch</text>
</g>
<!-- \\smtech\\StMarksSearch\\Canvas\\Courses\\AbstractCourseSearchDomain -->
<g id="node9" class="node">
<title>\\smtech\\StMarksSearch\\Canvas\\Courses\\AbstractCourseSearchDomain</title>
<polygon fill="none" stroke="#000000" points="727.2095,-367 539.9529,-367 539.9529,-331 727.2095,-331 727.2095,-367"/>
<text text-anchor="start" x="600.5759" y="-351.2" font-family="Courier,monospace" font-size="11.00" fill="#000000">«abstract»</text>
<text text-anchor="start" x="547.7673" y="-340.2" font-family="Courier,monospace" font-size="11.00" fill="#000000">AbstractCourseSearchDomain</text>
</g>
<!-- \\smtech\\StMarksSearch\\Canvas\\Courses\\Announcements\\AnnouncementsSearch&#45;&gt;\\smtech\\StMarksSearch\\Canvas\\Courses\\AbstractCourseSearchDomain -->
<g id="edge3" class="edge">
<title>\\smtech\\StMarksSearch\\Canvas\\Courses\\Announcements\\AnnouncementsSearch&#45;&gt;\\smtech\\StMarksSearch\\Canvas\\Courses\\AbstractCourseSearchDomain</title>
<path fill="none" stroke="#000000" d="M799.1404,-349C779.7286,-349 758.2814,-349 737.4399,-349"/>
<polygon fill="none" stroke="#000000" points="737.2689,-345.5001 727.2688,-349 737.2688,-352.5001 737.2689,-345.5001"/>
</g>
<!-- \\smtech\\StMarksSearch\\Canvas\\Courses\\Pages\\PagesSearch -->
<g id="node7" class="node">
<title>\\smtech\\StMarksSearch\\Canvas\\Courses\\Pages\\PagesSearch</title>
<polygon fill="none" stroke="#000000" points="914.2181,-288 825.9927,-288 825.9927,-252 914.2181,-252 914.2181,-288"/>
<text text-anchor="middle" x="870.1054" y="-266.7" font-family="Courier,monospace" font-size="11.00" fill="#000000">PagesSearch</text>
</g>
<!-- \\smtech\\StMarksSearch\\Canvas\\Courses\\Pages\\PagesSearch&#45;&gt;\\smtech\\StMarksSearch\\Canvas\\Courses\\AbstractCourseSearchDomain -->
<g id="edge5" class="edge">
<title>\\smtech\\StMarksSearch\\Canvas\\Courses\\Pages\\PagesSearch&#45;&gt;\\smtech\\StMarksSearch\\Canvas\\Courses\\AbstractCourseSearchDomain</title>
<path fill="none" stroke="#000000" d="M825.8945,-284.7666C789.6256,-296.8806 737.8081,-314.1878 697.0971,-327.7855"/>
<polygon fill="none" stroke="#000000" points="695.9098,-324.4919 687.5337,-330.9797 698.1275,-331.1313 695.9098,-324.4919"/>
</g>
<!-- \\smtech\\StMarksSearch\\Canvas\\Courses\\CourseSearch -->
<g id="node8" class="node">
<title>\\smtech\\StMarksSearch\\Canvas\\Courses\\CourseSearch</title>
<polygon fill="none" stroke="#000000" points="917.8185,-438 822.3923,-438 822.3923,-402 917.8185,-402 917.8185,-438"/>
<text text-anchor="middle" x="870.1054" y="-416.7" font-family="Courier,monospace" font-size="11.00" fill="#000000">CourseSearch</text>
</g>
<!-- \\smtech\\StMarksSearch\\Canvas\\AbstractCanvasSearch -->
<g id="node10" class="node">
<title>\\smtech\\StMarksSearch\\Canvas\\AbstractCanvasSearch</title>
<polygon fill="none" stroke="#000000" points="707.6027,-509 559.5597,-509 559.5597,-473 707.6027,-473 707.6027,-509"/>
<text text-anchor="start" x="600.5759" y="-493.2" font-family="Courier,monospace" font-size="11.00" fill="#000000">«abstract»</text>
<text text-anchor="start" x="567.5705" y="-482.2" font-family="Courier,monospace" font-size="11.00" fill="#000000">AbstractCanvasSearch</text>
</g>
<!-- \\smtech\\StMarksSearch\\Canvas\\Courses\\CourseSearch&#45;&gt;\\smtech\\StMarksSearch\\Canvas\\AbstractCanvasSearch -->
<g id="edge4" class="edge">
<title>\\smtech\\StMarksSearch\\Canvas\\Courses\\CourseSearch&#45;&gt;\\smtech\\StMarksSearch\\Canvas\\AbstractCanvasSearch</title>
<path fill="none" stroke="#000000" d="M822.2663,-437.7702C794.7353,-447.6573 759.3633,-459.7886 727.3952,-469 724.2204,-469.9148 720.9771,-470.8194 717.6947,-471.7099"/>
<polygon fill="none" stroke="#000000" points="716.5338,-468.3964 707.76,-474.3353 718.3224,-475.1641 716.5338,-468.3964"/>
</g>
<!-- \\smtech\\StMarksSearch\\Canvas\\AbstractCanvasSearchDomain -->
<g id="node11" class="node">
<title>\\smtech\\StMarksSearch\\Canvas\\AbstractCanvasSearchDomain</title>
<polygon fill="none" stroke="#000000" points="453.5227,-438 266.2661,-438 266.2661,-402 453.5227,-402 453.5227,-438"/>
<text text-anchor="start" x="326.889" y="-422.2" font-family="Courier,monospace" font-size="11.00" fill="#000000">«abstract»</text>
<text text-anchor="start" x="274.0804" y="-411.2" font-family="Courier,monospace" font-size="11.00" fill="#000000">AbstractCanvasSearchDomain</text>
</g>
<!-- \\smtech\\StMarksSearch\\Canvas\\Courses\\AbstractCourseSearchDomain&#45;&gt;\\smtech\\StMarksSearch\\Canvas\\AbstractCanvasSearchDomain -->
<g id="edge14" class="edge">
<title>\\smtech\\StMarksSearch\\Canvas\\Courses\\AbstractCourseSearchDomain&#45;&gt;\\smtech\\StMarksSearch\\Canvas\\AbstractCanvasSearchDomain</title>
<path fill="none" stroke="#000000" d="M548.2132,-367.0201C542.6386,-368.3283 537.1178,-369.6607 531.7673,-371 497.9531,-379.4639 460.7179,-389.9356 429.5761,-399.0228"/>
<polygon fill="none" stroke="#000000" points="428.303,-395.7487 419.6913,-401.9203 430.2721,-402.466 428.303,-395.7487"/>
</g>
<!-- \\smtech\\StMarksSearch\\Canvas\\AbstractCanvasSearch&#45;&gt;\\smtech\\StMarksSearch\\SearchEngine -->
<g id="edge2" class="edge">
<title>\\smtech\\StMarksSearch\\Canvas\\AbstractCanvasSearch&#45;&gt;\\smtech\\StMarksSearch\\SearchEngine</title>
<path fill="none" stroke="#000000" d="M576.7426,-509.1152C544.8853,-518.9353 504.3214,-530.8894 467.7673,-540 451.5641,-544.0384 433.8564,-547.8827 417.5584,-551.1951"/>
<polygon fill="none" stroke="#000000" points="416.7368,-547.7901 407.6188,-553.1857 418.1114,-554.6538 416.7368,-547.7901"/>
</g>
<!-- \\smtech\\StMarksSearch\\Canvas\\AbstractCanvasSearchDomain&#45;&gt;\\smtech\\StMarksSearch\\AbstractSearchDomain -->
<g id="edge12" class="edge">
<title>\\smtech\\StMarksSearch\\Canvas\\AbstractCanvasSearchDomain&#45;&gt;\\smtech\\StMarksSearch\\AbstractSearchDomain</title>
<path fill="none" stroke="#000000" d="M266.1092,-437.4866C260.0204,-438.9245 254.0003,-440.4315 248.1788,-442 219.6795,-449.6784 188.6247,-460.1316 162.8298,-469.411"/>
<polygon fill="none" stroke="#000000" points="161.4222,-466.1985 153.2175,-472.9018 163.8116,-472.7781 161.4222,-466.1985"/>
</g>
<!-- \\smtech\\StMarksSearch\\LibApps\\LibGuides\\LibGuidesSearch -->
<g id="node12" class="node">
<title>\\smtech\\StMarksSearch\\LibApps\\LibGuides\\LibGuidesSearch</title>
<polygon fill="none" stroke="#000000" points="691.0974,-166 576.0651,-166 576.0651,-130 691.0974,-130 691.0974,-166"/>
<text text-anchor="middle" x="633.5812" y="-144.7" font-family="Courier,monospace" font-size="11.00" fill="#000000">LibGuidesSearch</text>
</g>
<!-- \\smtech\\StMarksSearch\\LibApps\\AbstractLibAppsSearchDomain -->
<g id="node14" class="node">
<title>\\smtech\\StMarksSearch\\LibApps\\AbstractLibAppsSearchDomain</title>
<polygon fill="none" stroke="#000000" points="457.1235,-180 262.6652,-180 262.6652,-144 457.1235,-144 457.1235,-180"/>
<text text-anchor="start" x="326.889" y="-164.2" font-family="Courier,monospace" font-size="11.00" fill="#000000">«abstract»</text>
<text text-anchor="start" x="270.7799" y="-153.2" font-family="Courier,monospace" font-size="11.00" fill="#000000">AbstractLibAppsSearchDomain</text>
</g>
<!-- \\smtech\\StMarksSearch\\LibApps\\LibGuides\\LibGuidesSearch&#45;&gt;\\smtech\\StMarksSearch\\LibApps\\AbstractLibAppsSearchDomain -->
<g id="edge8" class="edge">
<title>\\smtech\\StMarksSearch\\LibApps\\LibGuides\\LibGuidesSearch&#45;&gt;\\smtech\\StMarksSearch\\LibApps\\AbstractLibAppsSearchDomain</title>
<path fill="none" stroke="#000000" d="M575.8737,-150.9519C544.408,-152.5615 504.4371,-154.6062 467.4588,-156.4977"/>
<polygon fill="none" stroke="#000000" points="466.9261,-153.0203 457.118,-157.0267 467.2837,-160.0112 466.9261,-153.0203"/>
</g>
<!-- \\smtech\\StMarksSearch\\LibApps\\LibAppsPest -->
<g id="node13" class="node">
<title>\\smtech\\StMarksSearch\\LibApps\\LibAppsPest</title>
<polygon fill="none" stroke="#000000" points="677.6939,-112 589.4686,-112 589.4686,-76 677.6939,-76 677.6939,-112"/>
<text text-anchor="middle" x="633.5812" y="-90.7" font-family="Courier,monospace" font-size="11.00" fill="#000000">LibAppsPest</text>
</g>
<!-- \\smtech\\StMarksSearch\\LibApps\\LibAppsPest&#45;&gt;\\Battis\\Educoder\\PestJSON -->
<g id="edge9" class="edge">
<title>\\smtech\\StMarksSearch\\LibApps\\LibAppsPest&#45;&gt;\\Battis\\Educoder\\PestJSON</title>
<path fill="none" stroke="#000000" d="M589.3045,-81.7048C544.911,-69.3772 476.0496,-50.2551 425.3481,-36.1758"/>
<polygon fill="none" stroke="#000000" points="426.0344,-32.734 415.4625,-33.4307 424.1614,-39.4788 426.0344,-32.734"/>
</g>
<!-- \\smtech\\StMarksSearch\\LibApps\\AbstractLibAppsSearchDomain&#45;&gt;\\smtech\\StMarksSearch\\AbstractSearchDomain -->
<g id="edge10" class="edge">
<title>\\smtech\\StMarksSearch\\LibApps\\AbstractLibAppsSearchDomain&#45;&gt;\\smtech\\StMarksSearch\\AbstractSearchDomain</title>
<path fill="none" stroke="#000000" d="M314.0516,-180.0889C292.1213,-190.4529 266.6809,-205.1735 248.1788,-224 177.2616,-296.1604 132.5667,-410.9262 114.7902,-463.3026"/>
<polygon fill="none" stroke="#000000" points="111.4281,-462.3214 111.5941,-472.915 118.0706,-464.5301 111.4281,-462.3214"/>
</g>
<!-- \\smtech\\StMarksSearch\\SearchSource -->
<g id="node15" class="node">
<title>\\smtech\\StMarksSearch\\SearchSource</title>
<polygon fill="none" stroke="#000000" points="917.8185,-219 822.3923,-219 822.3923,-183 917.8185,-183 917.8185,-219"/>
<text text-anchor="middle" x="870.1054" y="-197.7" font-family="Courier,monospace" font-size="11.00" fill="#000000">SearchSource</text>
</g>
<!-- \\smtech\\StMarksSearch\\SearchResult -->
<g id="node17" class="node">
<title>\\smtech\\StMarksSearch\\SearchResult</title>
<polygon fill="none" stroke="#000000" points="917.8185,-164 822.3923,-164 822.3923,-128 917.8185,-128 917.8185,-164"/>
<text text-anchor="middle" x="870.1054" y="-142.7" font-family="Courier,monospace" font-size="11.00" fill="#000000">SearchResult</text>
</g>
<!-- \\smtech\\StMarksSearch\\Relevance -->
<g id="node18" class="node">
<title>\\smtech\\StMarksSearch\\Relevance</title>
<polygon fill="none" stroke="#000000" points="908.0162,-108 832.1946,-108 832.1946,-72 908.0162,-72 908.0162,-108"/>
<text text-anchor="middle" x="870.1054" y="-86.7" font-family="Courier,monospace" font-size="11.00" fill="#000000">Relevance</text>
</g>
<!-- \\smtech\\StMarksSearch\\SearchEngine&#45;&gt;\\smtech\\StMarksSearch\\AbstractSearchDomain -->
<g id="edge15" class="edge">
<title>\\smtech\\StMarksSearch\\SearchEngine&#45;&gt;\\smtech\\StMarksSearch\\AbstractSearchDomain</title>
<path fill="none" stroke="#000000" d="M312.2705,-554.1135C292.3247,-550.4257 268.9836,-545.6053 248.1788,-540 219.6795,-532.3216 188.6247,-521.8684 162.8298,-512.589"/>
<polygon fill="none" stroke="#000000" points="163.8116,-509.2219 153.2175,-509.0982 161.4222,-515.8015 163.8116,-509.2219"/>
</g>
</g>
</svg>
