<?xml version="1.0" encoding="UTF-8" standalone="no"?>
<!DOCTYPE svg PUBLIC "-//W3C//DTD SVG 1.1//EN"
 "http://www.w3.org/Graphics/SVG/1.1/DTD/svg11.dtd">
<!-- Generated by graphviz version 2.40.1 (20161225.0304)
 -->
<!-- Title: G Pages: 1 -->
<svg width="947pt" height="793pt"
 viewBox="0.00 0.00 946.99 793.00" xmlns="http://www.w3.org/2000/svg" xmlns:xlink="http://www.w3.org/1999/xlink">
<g id="graph0" class="graph" transform="scale(1 1) rotate(0) translate(4 789)">
<title>G</title>
<polygon fill="#ffffff" stroke="transparent" points="-4,4 -4,-789 942.9929,-789 942.9929,4 -4,4"/>
<g id="clust1" class="cluster">
<title>cluster_Global</title>
<path fill="none" stroke="#c0c0c0" d="M20,-8C20,-8 918.9929,-8 918.9929,-8 924.9929,-8 930.9929,-14 930.9929,-20 930.9929,-20 930.9929,-765 930.9929,-765 930.9929,-771 924.9929,-777 918.9929,-777 918.9929,-777 20,-777 20,-777 14,-777 8,-771 8,-765 8,-765 8,-20 8,-20 8,-14 14,-8 20,-8"/>
<text text-anchor="middle" x="469.4965" y="-764.2" font-family="Times,serif" font-size="11.00" fill="#c0c0c0">Global</text>
</g>
<g id="clust2" class="cluster">
<title>cluster_\smtech</title>
<path fill="none" stroke="#c0c0c0" d="M28,-16C28,-16 910.9929,-16 910.9929,-16 916.9929,-16 922.9929,-22 922.9929,-28 922.9929,-28 922.9929,-738 922.9929,-738 922.9929,-744 916.9929,-750 910.9929,-750 910.9929,-750 28,-750 28,-750 22,-750 16,-744 16,-738 16,-738 16,-28 16,-28 16,-22 22,-16 28,-16"/>
<text text-anchor="middle" x="469.4965" y="-737.2" font-family="Times,serif" font-size="11.00" fill="#c0c0c0">smtech</text>
</g>
<g id="clust3" class="cluster">
<title>cluster_\smtech\StMarksSearch</title>
<path fill="none" stroke="#c0c0c0" d="M36,-24C36,-24 902.9929,-24 902.9929,-24 908.9929,-24 914.9929,-30 914.9929,-36 914.9929,-36 914.9929,-711 914.9929,-711 914.9929,-717 908.9929,-723 902.9929,-723 902.9929,-723 36,-723 36,-723 30,-723 24,-717 24,-711 24,-711 24,-36 24,-36 24,-30 30,-24 36,-24"/>
<text text-anchor="middle" x="469.4965" y="-710.2" font-family="Times,serif" font-size="11.00" fill="#c0c0c0">StMarksSearch</text>
</g>
<g id="clust4" class="cluster">
<title>cluster_\smtech\StMarksSearch\WordPress</title>
<path fill="none" stroke="#c0c0c0" d="M256.0215,-465C256.0215,-465 678.7747,-465 678.7747,-465 684.7747,-465 690.7747,-471 690.7747,-477 690.7747,-477 690.7747,-684 690.7747,-684 690.7747,-690 684.7747,-696 678.7747,-696 678.7747,-696 256.0215,-696 256.0215,-696 250.0215,-696 244.0215,-690 244.0215,-684 244.0215,-684 244.0215,-477 244.0215,-477 244.0215,-471 250.0215,-465 256.0215,-465"/>
<text text-anchor="middle" x="467.3981" y="-683.2" font-family="Times,serif" font-size="11.00" fill="#c0c0c0">WordPress</text>
</g>
<g id="clust5" class="cluster">
<title>cluster_\smtech\StMarksSearch\WordPress\Pages</title>
<path fill="none" stroke="#c0c0c0" d="M584.9607,-598C584.9607,-598 665.5725,-598 665.5725,-598 671.5725,-598 677.5725,-604 677.5725,-610 677.5725,-610 677.5725,-657 677.5725,-657 677.5725,-663 671.5725,-669 665.5725,-669 665.5725,-669 584.9607,-669 584.9607,-669 578.9607,-669 572.9607,-663 572.9607,-657 572.9607,-657 572.9607,-610 572.9607,-610 572.9607,-604 578.9607,-598 584.9607,-598"/>
<text text-anchor="middle" x="625.2666" y="-656.2" font-family="Times,serif" font-size="11.00" fill="#c0c0c0">Pages</text>
</g>
<g id="clust6" class="cluster">
<title>cluster_\smtech\StMarksSearch\WordPress\Posts</title>
<path fill="none" stroke="#c0c0c0" d="M584.9607,-519C584.9607,-519 665.5725,-519 665.5725,-519 671.5725,-519 677.5725,-525 677.5725,-531 677.5725,-531 677.5725,-578 677.5725,-578 677.5725,-584 671.5725,-590 665.5725,-590 665.5725,-590 584.9607,-590 584.9607,-590 578.9607,-590 572.9607,-584 572.9607,-578 572.9607,-578 572.9607,-531 572.9607,-531 572.9607,-525 578.9607,-519 584.9607,-519"/>
<text text-anchor="middle" x="625.2666" y="-577.2" font-family="Times,serif" font-size="11.00" fill="#c0c0c0">Posts</text>
</g>
<g id="clust7" class="cluster">
<title>cluster_\smtech\StMarksSearch\Canvas</title>
<path fill="none" stroke="#c0c0c0" d="M265.9231,-184C265.9231,-184 894.9929,-184 894.9929,-184 900.9929,-184 906.9929,-190 906.9929,-196 906.9929,-196 906.9929,-401 906.9929,-401 906.9929,-407 900.9929,-413 894.9929,-413 894.9929,-413 265.9231,-413 265.9231,-413 259.9231,-413 253.9231,-407 253.9231,-401 253.9231,-401 253.9231,-196 253.9231,-196 253.9231,-190 259.9231,-184 265.9231,-184"/>
<text text-anchor="middle" x="580.458" y="-400.2" font-family="Times,serif" font-size="11.00" fill="#c0c0c0">Canvas</text>
</g>
<g id="clust8" class="cluster">
<title>cluster_\smtech\StMarksSearch\Canvas\Courses</title>
<path fill="none" stroke="#c0c0c0" d="M535.4526,-192C535.4526,-192 886.9929,-192 886.9929,-192 892.9929,-192 898.9929,-198 898.9929,-204 898.9929,-204 898.9929,-330 898.9929,-330 898.9929,-336 892.9929,-342 886.9929,-342 886.9929,-342 535.4526,-342 535.4526,-342 529.4526,-342 523.4526,-336 523.4526,-330 523.4526,-330 523.4526,-204 523.4526,-204 523.4526,-198 529.4526,-192 535.4526,-192"/>
<text text-anchor="middle" x="711.2228" y="-329.2" font-family="Times,serif" font-size="11.00" fill="#c0c0c0">Courses</text>
</g>
<g id="clust9" class="cluster">
<title>cluster_\smtech\StMarksSearch\Canvas\Courses\Pages</title>
<path fill="none" stroke="#c0c0c0" d="M798.3811,-200C798.3811,-200 878.9929,-200 878.9929,-200 884.9929,-200 890.9929,-206 890.9929,-212 890.9929,-212 890.9929,-259 890.9929,-259 890.9929,-265 884.9929,-271 878.9929,-271 878.9929,-271 798.3811,-271 798.3811,-271 792.3811,-271 786.3811,-265 786.3811,-259 786.3811,-259 786.3811,-212 786.3811,-212 786.3811,-206 792.3811,-200 798.3811,-200"/>
<text text-anchor="middle" x="838.687" y="-258.2" font-family="Times,serif" font-size="11.00" fill="#c0c0c0">Pages</text>
</g>
<!-- \\smtech\\StMarksSearch\\WordPress\\Pages\\PagesSearch -->
<g id="node1" class="node">
<title>\\smtech\\StMarksSearch\\WordPress\\Pages\\PagesSearch</title>
<polygon fill="none" stroke="#000000" points="669.3793,-642 581.1539,-642 581.1539,-606 669.3793,-606 669.3793,-642"/>
<text text-anchor="middle" x="625.2666" y="-620.7" font-family="Courier,monospace" font-size="11.00" fill="#000000">PagesSearch</text>
</g>
<!-- \\smtech\\StMarksSearch\\WordPress\\AbstractWordPressSearchDomain -->
<g id="node3" class="node">
<title>\\smtech\\StMarksSearch\\WordPress\\AbstractWordPressSearchDomain</title>
<polygon fill="none" stroke="#000000" points="459.6687,-563 251.8055,-563 251.8055,-527 459.6687,-527 459.6687,-563"/>
<text text-anchor="start" x="322.7317" y="-547.2" font-family="Courier,monospace" font-size="11.00" fill="#000000">«abstract»</text>
<text text-anchor="start" x="260.0215" y="-536.2" font-family="Courier,monospace" font-size="11.00" fill="#000000">AbstractWordPressSearchDomain</text>
</g>
<!-- \\smtech\\StMarksSearch\\WordPress\\Pages\\PagesSearch&#45;&gt;\\smtech\\StMarksSearch\\WordPress\\AbstractWordPressSearchDomain -->
<g id="edge5" class="edge">
<title>\\smtech\\StMarksSearch\\WordPress\\Pages\\PagesSearch&#45;&gt;\\smtech\\StMarksSearch\\WordPress\\AbstractWordPressSearchDomain</title>
<path fill="none" stroke="#000000" d="M581.0611,-611.0432C539.3548,-598.819 476.1115,-580.2822 427.2326,-565.9556"/>
<polygon fill="none" stroke="#000000" points="427.9273,-562.512 417.3465,-563.0579 425.9583,-569.2294 427.9273,-562.512"/>
</g>
<!-- \\smtech\\StMarksSearch\\WordPress\\Posts\\PostsSearch -->
<g id="node2" class="node">
<title>\\smtech\\StMarksSearch\\WordPress\\Posts\\PostsSearch</title>
<polygon fill="none" stroke="#000000" points="669.3793,-563 581.1539,-563 581.1539,-527 669.3793,-527 669.3793,-563"/>
<text text-anchor="middle" x="625.2666" y="-541.7" font-family="Courier,monospace" font-size="11.00" fill="#000000">PostsSearch</text>
</g>
<!-- \\smtech\\StMarksSearch\\WordPress\\Posts\\PostsSearch&#45;&gt;\\smtech\\StMarksSearch\\WordPress\\AbstractWordPressSearchDomain -->
<g id="edge6" class="edge">
<title>\\smtech\\StMarksSearch\\WordPress\\Posts\\PostsSearch&#45;&gt;\\smtech\\StMarksSearch\\WordPress\\AbstractWordPressSearchDomain</title>
<path fill="none" stroke="#000000" d="M581.0611,-545C550.7675,-545 509.1111,-545 469.85,-545"/>
<polygon fill="none" stroke="#000000" points="469.6607,-541.5001 459.6607,-545 469.6607,-548.5001 469.6607,-541.5001"/>
</g>
<!-- \\smtech\\StMarksSearch\\AbstractSearchDomain -->
<g id="node11" class="node">
<title>\\smtech\\StMarksSearch\\AbstractSearchDomain</title>
<polygon fill="none" stroke="#000000" points="180.0322,-457 31.9893,-457 31.9893,-421 180.0322,-421 180.0322,-457"/>
<text text-anchor="start" x="73.0054" y="-441.2" font-family="Courier,monospace" font-size="11.00" fill="#000000">«abstract»</text>
<text text-anchor="start" x="40" y="-430.2" font-family="Courier,monospace" font-size="11.00" fill="#000000">AbstractSearchDomain</text>
</g>
<!-- \\smtech\\StMarksSearch\\WordPress\\AbstractWordPressSearchDomain&#45;&gt;\\smtech\\StMarksSearch\\AbstractSearchDomain -->
<g id="edge1" class="edge">
<title>\\smtech\\StMarksSearch\\WordPress\\AbstractWordPressSearchDomain&#45;&gt;\\smtech\\StMarksSearch\\AbstractSearchDomain</title>
<path fill="none" stroke="#000000" d="M255.0667,-526.9379C251.3083,-525.7071 247.6145,-524.3961 244.0215,-523 205.3308,-507.9667 165.2541,-482.2446 138.3226,-463.2147"/>
<polygon fill="none" stroke="#000000" points="140.2262,-460.273 130.059,-457.2934 136.149,-465.963 140.2262,-460.273"/>
</g>
<!-- \\smtech\\StMarksSearch\\WordPress\\WordPressSearch -->
<g id="node4" class="node">
<title>\\smtech\\StMarksSearch\\WordPress\\WordPressSearch</title>
<polygon fill="none" stroke="#000000" points="682.7827,-509 567.7505,-509 567.7505,-473 682.7827,-473 682.7827,-509"/>
<text text-anchor="middle" x="625.2666" y="-487.7" font-family="Courier,monospace" font-size="11.00" fill="#000000">WordPressSearch</text>
</g>
<!-- \\smtech\\StMarksSearch\\SearchEngine -->
<g id="node14" class="node">
<title>\\smtech\\StMarksSearch\\SearchEngine</title>
<polygon fill="none" stroke="#000000" points="403.4502,-457 308.0239,-457 308.0239,-421 403.4502,-421 403.4502,-457"/>
<text text-anchor="middle" x="355.7371" y="-435.7" font-family="Courier,monospace" font-size="11.00" fill="#000000">SearchEngine</text>
</g>
<!-- \\smtech\\StMarksSearch\\WordPress\\WordPressSearch&#45;&gt;\\smtech\\StMarksSearch\\SearchEngine -->
<g id="edge8" class="edge">
<title>\\smtech\\StMarksSearch\\WordPress\\WordPressSearch&#45;&gt;\\smtech\\StMarksSearch\\SearchEngine</title>
<path fill="none" stroke="#000000" d="M567.4458,-479.8447C522.0034,-471.0776 459.0076,-458.9239 413.5638,-450.1564"/>
<polygon fill="none" stroke="#000000" points="414.0513,-446.686 403.5693,-448.2282 412.7252,-453.5593 414.0513,-446.686"/>
</g>
<!-- \\smtech\\StMarksSearch\\Canvas\\Courses\\Pages\\PagesSearch -->
<g id="node5" class="node">
<title>\\smtech\\StMarksSearch\\Canvas\\Courses\\Pages\\PagesSearch</title>
<polygon fill="none" stroke="#000000" points="882.7997,-244 794.5743,-244 794.5743,-208 882.7997,-208 882.7997,-244"/>
<text text-anchor="middle" x="838.687" y="-222.7" font-family="Courier,monospace" font-size="11.00" fill="#000000">PagesSearch</text>
</g>
<!-- \\smtech\\StMarksSearch\\Canvas\\Courses\\AbstractCourseSearchDomain -->
<g id="node7" class="node">
<title>\\smtech\\StMarksSearch\\Canvas\\Courses\\AbstractCourseSearchDomain</title>
<polygon fill="none" stroke="#000000" points="718.8949,-279 531.6383,-279 531.6383,-243 718.8949,-243 718.8949,-279"/>
<text text-anchor="start" x="592.2612" y="-263.2" font-family="Courier,monospace" font-size="11.00" fill="#000000">«abstract»</text>
<text text-anchor="start" x="539.4526" y="-252.2" font-family="Courier,monospace" font-size="11.00" fill="#000000">AbstractCourseSearchDomain</text>
</g>
<!-- \\smtech\\StMarksSearch\\Canvas\\Courses\\Pages\\PagesSearch&#45;&gt;\\smtech\\StMarksSearch\\Canvas\\Courses\\AbstractCourseSearchDomain -->
<g id="edge4" class="edge">
<title>\\smtech\\StMarksSearch\\Canvas\\Courses\\Pages\\PagesSearch&#45;&gt;\\smtech\\StMarksSearch\\Canvas\\Courses\\AbstractCourseSearchDomain</title>
<path fill="none" stroke="#000000" d="M794.4662,-233.252C775.4286,-236.3741 752.2939,-240.1681 729.3232,-243.9352"/>
<polygon fill="none" stroke="#000000" points="728.4518,-240.5312 719.1501,-245.6035 729.5847,-247.439 728.4518,-240.5312"/>
</g>
<!-- \\smtech\\StMarksSearch\\Canvas\\Courses\\CourseSearch -->
<g id="node6" class="node">
<title>\\smtech\\StMarksSearch\\Canvas\\Courses\\CourseSearch</title>
<polygon fill="none" stroke="#000000" points="886.4001,-315 790.9739,-315 790.9739,-279 886.4001,-279 886.4001,-315"/>
<text text-anchor="middle" x="838.687" y="-293.7" font-family="Courier,monospace" font-size="11.00" fill="#000000">CourseSearch</text>
</g>
<!-- \\smtech\\StMarksSearch\\Canvas\\AbstractCanvasSearch -->
<g id="node8" class="node">
<title>\\smtech\\StMarksSearch\\Canvas\\AbstractCanvasSearch</title>
<polygon fill="none" stroke="#000000" points="699.2881,-386 551.2451,-386 551.2451,-350 699.2881,-350 699.2881,-386"/>
<text text-anchor="start" x="592.2612" y="-370.2" font-family="Courier,monospace" font-size="11.00" fill="#000000">«abstract»</text>
<text text-anchor="start" x="559.2559" y="-359.2" font-family="Courier,monospace" font-size="11.00" fill="#000000">AbstractCanvasSearch</text>
</g>
<!-- \\smtech\\StMarksSearch\\Canvas\\Courses\\CourseSearch&#45;&gt;\\smtech\\StMarksSearch\\Canvas\\AbstractCanvasSearch -->
<g id="edge3" class="edge">
<title>\\smtech\\StMarksSearch\\Canvas\\Courses\\CourseSearch&#45;&gt;\\smtech\\StMarksSearch\\Canvas\\AbstractCanvasSearch</title>
<path fill="none" stroke="#000000" d="M799.1315,-315.0549C776.1063,-325.0948 746.3314,-337.2833 719.0806,-346 715.7942,-347.0512 712.4285,-348.0758 709.0175,-349.0713"/>
<polygon fill="none" stroke="#000000" points="707.9937,-345.7233 699.313,-351.7976 709.887,-352.4624 707.9937,-345.7233"/>
</g>
<!-- \\smtech\\StMarksSearch\\Canvas\\AbstractCanvasSearchDomain -->
<g id="node9" class="node">
<title>\\smtech\\StMarksSearch\\Canvas\\AbstractCanvasSearchDomain</title>
<polygon fill="none" stroke="#000000" points="449.3654,-332 262.1088,-332 262.1088,-296 449.3654,-296 449.3654,-332"/>
<text text-anchor="start" x="322.7317" y="-316.2" font-family="Courier,monospace" font-size="11.00" fill="#000000">«abstract»</text>
<text text-anchor="start" x="269.9231" y="-305.2" font-family="Courier,monospace" font-size="11.00" fill="#000000">AbstractCanvasSearchDomain</text>
</g>
<!-- \\smtech\\StMarksSearch\\Canvas\\Courses\\AbstractCourseSearchDomain&#45;&gt;\\smtech\\StMarksSearch\\Canvas\\AbstractCanvasSearchDomain -->
<g id="edge9" class="edge">
<title>\\smtech\\StMarksSearch\\Canvas\\Courses\\AbstractCourseSearchDomain&#45;&gt;\\smtech\\StMarksSearch\\Canvas\\AbstractCanvasSearchDomain</title>
<path fill="none" stroke="#000000" d="M533.6401,-279.0173C509.1197,-283.839 482.4694,-289.0795 457.4406,-294.0011"/>
<polygon fill="none" stroke="#000000" points="456.7047,-290.5787 447.5679,-295.9425 458.0553,-297.4472 456.7047,-290.5787"/>
</g>
<!-- \\smtech\\StMarksSearch\\Canvas\\AbstractCanvasSearch&#45;&gt;\\smtech\\StMarksSearch\\SearchEngine -->
<g id="edge2" class="edge">
<title>\\smtech\\StMarksSearch\\Canvas\\AbstractCanvasSearch&#45;&gt;\\smtech\\StMarksSearch\\SearchEngine</title>
<path fill="none" stroke="#000000" d="M568.3999,-386.0036C536.534,-395.7894 495.9708,-407.7463 459.4526,-417 444.6654,-420.7471 428.5827,-424.3737 413.5932,-427.5652"/>
<polygon fill="none" stroke="#000000" points="412.4871,-424.221 403.4198,-429.7013 413.9256,-431.0717 412.4871,-424.221"/>
</g>
<!-- \\smtech\\StMarksSearch\\Canvas\\AbstractCanvasSearchDomain&#45;&gt;\\smtech\\StMarksSearch\\AbstractSearchDomain -->
<g id="edge7" class="edge">
<title>\\smtech\\StMarksSearch\\Canvas\\AbstractCanvasSearchDomain&#45;&gt;\\smtech\\StMarksSearch\\AbstractSearchDomain</title>
<path fill="none" stroke="#000000" d="M262.1012,-329.1596C255.8847,-331.1647 249.803,-333.4334 244.0215,-336 200.6844,-355.2384 158.0756,-390.1704 131.925,-413.9679"/>
<polygon fill="none" stroke="#000000" points="129.322,-411.6078 124.3551,-420.9662 134.0739,-416.7478 129.322,-411.6078"/>
</g>
<!-- \\smtech\\StMarksSearch\\SearchSource -->
<g id="node10" class="node">
<title>\\smtech\\StMarksSearch\\SearchSource</title>
<polygon fill="none" stroke="#000000" points="886.4001,-176 790.9739,-176 790.9739,-140 886.4001,-140 886.4001,-176"/>
<text text-anchor="middle" x="838.687" y="-154.7" font-family="Courier,monospace" font-size="11.00" fill="#000000">SearchSource</text>
</g>
<!-- \\smtech\\StMarksSearch\\SearchResult -->
<g id="node12" class="node">
<title>\\smtech\\StMarksSearch\\SearchResult</title>
<polygon fill="none" stroke="#000000" points="886.4001,-122 790.9739,-122 790.9739,-86 886.4001,-86 886.4001,-122"/>
<text text-anchor="middle" x="838.687" y="-100.7" font-family="Courier,monospace" font-size="11.00" fill="#000000">SearchResult</text>
</g>
<!-- \\smtech\\StMarksSearch\\Relevance -->
<g id="node13" class="node">
<title>\\smtech\\StMarksSearch\\Relevance</title>
<polygon fill="none" stroke="#000000" points="876.5978,-68 800.7762,-68 800.7762,-32 876.5978,-32 876.5978,-68"/>
<text text-anchor="middle" x="838.687" y="-46.7" font-family="Courier,monospace" font-size="11.00" fill="#000000">Relevance</text>
</g>
<!-- \\smtech\\StMarksSearch\\SearchEngine&#45;&gt;\\smtech\\StMarksSearch\\AbstractSearchDomain -->
<g id="edge10" class="edge">
<title>\\smtech\\StMarksSearch\\SearchEngine&#45;&gt;\\smtech\\StMarksSearch\\AbstractSearchDomain</title>
<path fill="none" stroke="#000000" d="M307.8828,-439C274.7308,-439 229.6963,-439 190.5741,-439"/>
<polygon fill="none" stroke="#000000" points="190.2403,-435.5001 180.2403,-439 190.2403,-442.5001 190.2403,-435.5001"/>
</g>
</g>
</svg>
