<?xml version="1.0" encoding="UTF-8" standalone="no"?>
<!DOCTYPE svg PUBLIC "-//W3C//DTD SVG 1.1//EN"
 "http://www.w3.org/Graphics/SVG/1.1/DTD/svg11.dtd">
<!-- Generated by graphviz version 2.40.1 (20161225.0304)
 -->
<!-- Title: G Pages: 1 -->
<svg width="697pt" height="749pt"
 viewBox="0.00 0.00 697.27 749.00" xmlns="http://www.w3.org/2000/svg" xmlns:xlink="http://www.w3.org/1999/xlink">
<g id="graph0" class="graph" transform="scale(1 1) rotate(0) translate(4 745)">
<title>G</title>
<polygon fill="#ffffff" stroke="transparent" points="-4,4 -4,-745 693.2666,-745 693.2666,4 -4,4"/>
<g id="clust1" class="cluster">
<title>cluster_Global</title>
<path fill="none" stroke="#c0c0c0" d="M20,-8C20,-8 669.2666,-8 669.2666,-8 675.2666,-8 681.2666,-14 681.2666,-20 681.2666,-20 681.2666,-721 681.2666,-721 681.2666,-727 675.2666,-733 669.2666,-733 669.2666,-733 20,-733 20,-733 14,-733 8,-727 8,-721 8,-721 8,-20 8,-20 8,-14 14,-8 20,-8"/>
<text text-anchor="middle" x="344.6333" y="-720.2" font-family="Times,serif" font-size="11.00" fill="#c0c0c0">Global</text>
</g>
<g id="clust2" class="cluster">
<title>cluster_\smtech</title>
<path fill="none" stroke="#c0c0c0" d="M28,-16C28,-16 661.2666,-16 661.2666,-16 667.2666,-16 673.2666,-22 673.2666,-28 673.2666,-28 673.2666,-694 673.2666,-694 673.2666,-700 667.2666,-706 661.2666,-706 661.2666,-706 28,-706 28,-706 22,-706 16,-700 16,-694 16,-694 16,-28 16,-28 16,-22 22,-16 28,-16"/>
<text text-anchor="middle" x="344.6333" y="-693.2" font-family="Times,serif" font-size="11.00" fill="#c0c0c0">smtech</text>
</g>
<g id="clust3" class="cluster">
<title>cluster_\smtech\StMarksSearch</title>
<path fill="none" stroke="#c0c0c0" d="M36,-24C36,-24 653.2666,-24 653.2666,-24 659.2666,-24 665.2666,-30 665.2666,-36 665.2666,-36 665.2666,-667 665.2666,-667 665.2666,-673 659.2666,-679 653.2666,-679 653.2666,-679 36,-679 36,-679 30,-679 24,-673 24,-667 24,-667 24,-36 24,-36 24,-30 30,-24 36,-24"/>
<text text-anchor="middle" x="344.6333" y="-666.2" font-family="Times,serif" font-size="11.00" fill="#c0c0c0">StMarksSearch</text>
</g>
<g id="clust4" class="cluster">
<title>cluster_\smtech\StMarksSearch\WordPress</title>
<path fill="none" stroke="#c0c0c0" d="M256.0215,-421C256.0215,-421 642.4688,-421 642.4688,-421 648.4688,-421 654.4688,-427 654.4688,-433 654.4688,-433 654.4688,-640 654.4688,-640 654.4688,-646 648.4688,-652 642.4688,-652 642.4688,-652 256.0215,-652 256.0215,-652 250.0215,-652 244.0215,-646 244.0215,-640 244.0215,-640 244.0215,-433 244.0215,-433 244.0215,-427 250.0215,-421 256.0215,-421"/>
<text text-anchor="middle" x="449.2451" y="-639.2" font-family="Times,serif" font-size="11.00" fill="#c0c0c0">WordPress</text>
</g>
<g id="clust5" class="cluster">
<title>cluster_\smtech\StMarksSearch\WordPress\Pages</title>
<path fill="none" stroke="#c0c0c0" d="M548.6548,-554C548.6548,-554 629.2666,-554 629.2666,-554 635.2666,-554 641.2666,-560 641.2666,-566 641.2666,-566 641.2666,-613 641.2666,-613 641.2666,-619 635.2666,-625 629.2666,-625 629.2666,-625 548.6548,-625 548.6548,-625 542.6548,-625 536.6548,-619 536.6548,-613 536.6548,-613 536.6548,-566 536.6548,-566 536.6548,-560 542.6548,-554 548.6548,-554"/>
<text text-anchor="middle" x="588.9607" y="-612.2" font-family="Times,serif" font-size="11.00" fill="#c0c0c0">Pages</text>
</g>
<g id="clust6" class="cluster">
<title>cluster_\smtech\StMarksSearch\WordPress\Posts</title>
<path fill="none" stroke="#c0c0c0" d="M548.6548,-475C548.6548,-475 629.2666,-475 629.2666,-475 635.2666,-475 641.2666,-481 641.2666,-487 641.2666,-487 641.2666,-534 641.2666,-534 641.2666,-540 635.2666,-546 629.2666,-546 629.2666,-546 548.6548,-546 548.6548,-546 542.6548,-546 536.6548,-540 536.6548,-534 536.6548,-534 536.6548,-487 536.6548,-487 536.6548,-481 542.6548,-475 548.6548,-475"/>
<text text-anchor="middle" x="588.9607" y="-533.2" font-family="Times,serif" font-size="11.00" fill="#c0c0c0">Posts</text>
</g>
<g id="clust7" class="cluster">
<title>cluster_\smtech\StMarksSearch\Canvas</title>
<path fill="none" stroke="#c0c0c0" d="M257.9231,-184C257.9231,-184 645.2666,-184 645.2666,-184 651.2666,-184 657.2666,-190 657.2666,-196 657.2666,-196 657.2666,-357 657.2666,-357 657.2666,-363 651.2666,-369 645.2666,-369 645.2666,-369 257.9231,-369 257.9231,-369 251.9231,-369 245.9231,-363 245.9231,-357 245.9231,-357 245.9231,-196 245.9231,-196 245.9231,-190 251.9231,-184 257.9231,-184"/>
<text text-anchor="middle" x="451.5948" y="-356.2" font-family="Times,serif" font-size="11.00" fill="#c0c0c0">Canvas</text>
</g>
<g id="clust8" class="cluster">
<title>cluster_\smtech\StMarksSearch\Canvas\Courses</title>
<path fill="none" stroke="#c0c0c0" d="M265.9231,-192C265.9231,-192 637.2666,-192 637.2666,-192 643.2666,-192 649.2666,-198 649.2666,-204 649.2666,-204 649.2666,-330 649.2666,-330 649.2666,-336 643.2666,-342 637.2666,-342 637.2666,-342 265.9231,-342 265.9231,-342 259.9231,-342 253.9231,-336 253.9231,-330 253.9231,-330 253.9231,-204 253.9231,-204 253.9231,-198 259.9231,-192 265.9231,-192"/>
<text text-anchor="middle" x="451.5948" y="-329.2" font-family="Times,serif" font-size="11.00" fill="#c0c0c0">Courses</text>
</g>
<g id="clust9" class="cluster">
<title>cluster_\smtech\StMarksSearch\Canvas\Courses\Pages</title>
<path fill="none" stroke="#c0c0c0" d="M548.6548,-200C548.6548,-200 629.2666,-200 629.2666,-200 635.2666,-200 641.2666,-206 641.2666,-212 641.2666,-212 641.2666,-259 641.2666,-259 641.2666,-265 635.2666,-271 629.2666,-271 629.2666,-271 548.6548,-271 548.6548,-271 542.6548,-271 536.6548,-265 536.6548,-259 536.6548,-259 536.6548,-212 536.6548,-212 536.6548,-206 542.6548,-200 548.6548,-200"/>
<text text-anchor="middle" x="588.9607" y="-258.2" font-family="Times,serif" font-size="11.00" fill="#c0c0c0">Pages</text>
</g>
<!-- \\smtech\\StMarksSearch\\WordPress\\Pages\\PagesSearch -->
<g id="node1" class="node">
<title>\\smtech\\StMarksSearch\\WordPress\\Pages\\PagesSearch</title>
<polygon fill="none" stroke="#000000" points="633.0734,-598 544.848,-598 544.848,-562 633.0734,-562 633.0734,-598"/>
<text text-anchor="middle" x="588.9607" y="-576.7" font-family="Courier,monospace" font-size="11.00" fill="#000000">PagesSearch</text>
</g>
<!-- \\smtech\\StMarksSearch\\WordPress\\AbstractWordPressSearchDomain -->
<g id="node3" class="node">
<title>\\smtech\\StMarksSearch\\WordPress\\AbstractWordPressSearchDomain</title>
<polygon fill="none" stroke="#000000" points="459.6687,-519 251.8055,-519 251.8055,-483 459.6687,-483 459.6687,-519"/>
<text text-anchor="start" x="322.7317" y="-503.2" font-family="Courier,monospace" font-size="11.00" fill="#000000">«abstract»</text>
<text text-anchor="start" x="260.0215" y="-492.2" font-family="Courier,monospace" font-size="11.00" fill="#000000">AbstractWordPressSearchDomain</text>
</g>
<!-- \\smtech\\StMarksSearch\\WordPress\\Pages\\PagesSearch&#45;&gt;\\smtech\\StMarksSearch\\WordPress\\AbstractWordPressSearchDomain -->
<g id="edge4" class="edge">
<title>\\smtech\\StMarksSearch\\WordPress\\Pages\\PagesSearch&#45;&gt;\\smtech\\StMarksSearch\\WordPress\\AbstractWordPressSearchDomain</title>
<path fill="none" stroke="#000000" d="M544.8189,-565.0478C509.1951,-552.9809 458.6218,-535.8502 418.7409,-522.3413"/>
<polygon fill="none" stroke="#000000" points="419.7028,-518.9719 409.1085,-519.0785 417.4569,-525.6018 419.7028,-518.9719"/>
</g>
<!-- \\smtech\\StMarksSearch\\WordPress\\Posts\\PostsSearch -->
<g id="node2" class="node">
<title>\\smtech\\StMarksSearch\\WordPress\\Posts\\PostsSearch</title>
<polygon fill="none" stroke="#000000" points="633.0734,-519 544.848,-519 544.848,-483 633.0734,-483 633.0734,-519"/>
<text text-anchor="middle" x="588.9607" y="-497.7" font-family="Courier,monospace" font-size="11.00" fill="#000000">PostsSearch</text>
</g>
<!-- \\smtech\\StMarksSearch\\WordPress\\Posts\\PostsSearch&#45;&gt;\\smtech\\StMarksSearch\\WordPress\\AbstractWordPressSearchDomain -->
<g id="edge5" class="edge">
<title>\\smtech\\StMarksSearch\\WordPress\\Posts\\PostsSearch&#45;&gt;\\smtech\\StMarksSearch\\WordPress\\AbstractWordPressSearchDomain</title>
<path fill="none" stroke="#000000" d="M544.8189,-501C523.3899,-501 496.5513,-501 469.8847,-501"/>
<polygon fill="none" stroke="#000000" points="469.6846,-497.5001 459.6845,-501 469.6845,-504.5001 469.6846,-497.5001"/>
</g>
<!-- \\smtech\\StMarksSearch\\AbstractSearchDomain -->
<g id="node9" class="node">
<title>\\smtech\\StMarksSearch\\AbstractSearchDomain</title>
<polygon fill="none" stroke="#000000" points="180.0322,-413 31.9893,-413 31.9893,-377 180.0322,-377 180.0322,-413"/>
<text text-anchor="start" x="73.0054" y="-397.2" font-family="Courier,monospace" font-size="11.00" fill="#000000">«abstract»</text>
<text text-anchor="start" x="40" y="-386.2" font-family="Courier,monospace" font-size="11.00" fill="#000000">AbstractSearchDomain</text>
</g>
<!-- \\smtech\\StMarksSearch\\WordPress\\AbstractWordPressSearchDomain&#45;&gt;\\smtech\\StMarksSearch\\AbstractSearchDomain -->
<g id="edge1" class="edge">
<title>\\smtech\\StMarksSearch\\WordPress\\AbstractWordPressSearchDomain&#45;&gt;\\smtech\\StMarksSearch\\AbstractSearchDomain</title>
<path fill="none" stroke="#000000" d="M255.0667,-482.9379C251.3083,-481.7071 247.6145,-480.3961 244.0215,-479 205.3308,-463.9667 165.2541,-438.2446 138.3226,-419.2147"/>
<polygon fill="none" stroke="#000000" points="140.2262,-416.273 130.059,-413.2934 136.149,-421.963 140.2262,-416.273"/>
</g>
<!-- \\smtech\\StMarksSearch\\WordPress\\WordPressSearch -->
<g id="node4" class="node">
<title>\\smtech\\StMarksSearch\\WordPress\\WordPressSearch</title>
<polygon fill="none" stroke="#000000" points="646.4768,-465 531.4446,-465 531.4446,-429 646.4768,-429 646.4768,-465"/>
<text text-anchor="middle" x="588.9607" y="-443.7" font-family="Courier,monospace" font-size="11.00" fill="#000000">WordPressSearch</text>
</g>
<!-- \\smtech\\StMarksSearch\\SearchEngine -->
<g id="node12" class="node">
<title>\\smtech\\StMarksSearch\\SearchEngine</title>
<polygon fill="none" stroke="#000000" points="403.4502,-413 308.0239,-413 308.0239,-377 403.4502,-377 403.4502,-413"/>
<text text-anchor="middle" x="355.7371" y="-391.7" font-family="Courier,monospace" font-size="11.00" fill="#000000">SearchEngine</text>
</g>
<!-- \\smtech\\StMarksSearch\\WordPress\\WordPressSearch&#45;&gt;\\smtech\\StMarksSearch\\SearchEngine -->
<g id="edge6" class="edge">
<title>\\smtech\\StMarksSearch\\WordPress\\WordPressSearch&#45;&gt;\\smtech\\StMarksSearch\\SearchEngine</title>
<path fill="none" stroke="#000000" d="M531.3129,-433.4041C508.9008,-428.1818 482.9981,-422.2238 459.4526,-417 444.6331,-413.7121 428.5984,-410.2595 413.6693,-407.0895"/>
<polygon fill="none" stroke="#000000" points="414.047,-403.5919 403.539,-404.9455 412.5975,-410.4402 414.047,-403.5919"/>
</g>
<!-- \\smtech\\StMarksSearch\\Canvas\\Courses\\Pages\\PagesSearch -->
<g id="node5" class="node">
<title>\\smtech\\StMarksSearch\\Canvas\\Courses\\Pages\\PagesSearch</title>
<polygon fill="none" stroke="#000000" points="633.0734,-244 544.848,-244 544.848,-208 633.0734,-208 633.0734,-244"/>
<text text-anchor="middle" x="588.9607" y="-222.7" font-family="Courier,monospace" font-size="11.00" fill="#000000">PagesSearch</text>
</g>
<!-- \\smtech\\StMarksSearch\\Canvas\\Courses\\AbstractCourseSearchDomain -->
<g id="node7" class="node">
<title>\\smtech\\StMarksSearch\\Canvas\\Courses\\AbstractCourseSearchDomain</title>
<polygon fill="none" stroke="#000000" points="449.3654,-279 262.1088,-279 262.1088,-243 449.3654,-243 449.3654,-279"/>
<text text-anchor="start" x="322.7317" y="-263.2" font-family="Courier,monospace" font-size="11.00" fill="#000000">«abstract»</text>
<text text-anchor="start" x="269.9231" y="-252.2" font-family="Courier,monospace" font-size="11.00" fill="#000000">AbstractCourseSearchDomain</text>
</g>
<!-- \\smtech\\StMarksSearch\\Canvas\\Courses\\Pages\\PagesSearch&#45;&gt;\\smtech\\StMarksSearch\\Canvas\\Courses\\AbstractCourseSearchDomain -->
<g id="edge3" class="edge">
<title>\\smtech\\StMarksSearch\\Canvas\\Courses\\Pages\\PagesSearch&#45;&gt;\\smtech\\StMarksSearch\\Canvas\\Courses\\AbstractCourseSearchDomain</title>
<path fill="none" stroke="#000000" d="M544.8189,-232.6244C520.6151,-236.2567 489.5102,-240.9246 459.5466,-245.4212"/>
<polygon fill="none" stroke="#000000" points="458.8102,-241.9925 449.4404,-246.9379 459.8491,-248.915 458.8102,-241.9925"/>
</g>
<!-- \\smtech\\StMarksSearch\\Canvas\\Courses\\CourseSearch -->
<g id="node6" class="node">
<title>\\smtech\\StMarksSearch\\Canvas\\Courses\\CourseSearch</title>
<polygon fill="none" stroke="#000000" points="636.6738,-315 541.2476,-315 541.2476,-279 636.6738,-279 636.6738,-315"/>
<text text-anchor="middle" x="588.9607" y="-293.7" font-family="Courier,monospace" font-size="11.00" fill="#000000">CourseSearch</text>
</g>
<!-- \\smtech\\StMarksSearch\\Canvas\\Courses\\CourseSearch&#45;&gt;\\smtech\\StMarksSearch\\SearchEngine -->
<g id="edge2" class="edge">
<title>\\smtech\\StMarksSearch\\Canvas\\Courses\\CourseSearch&#45;&gt;\\smtech\\StMarksSearch\\SearchEngine</title>
<path fill="none" stroke="#000000" d="M545.9121,-315.0889C507.0821,-331.4052 449.859,-355.4502 408.3317,-372.8999"/>
<polygon fill="none" stroke="#000000" points="406.7925,-369.7501 398.9292,-376.8508 409.5043,-376.2035 406.7925,-369.7501"/>
</g>
<!-- \\smtech\\StMarksSearch\\Canvas\\Courses\\AbstractCourseSearchDomain&#45;&gt;\\smtech\\StMarksSearch\\AbstractSearchDomain -->
<g id="edge7" class="edge">
<title>\\smtech\\StMarksSearch\\Canvas\\Courses\\AbstractCourseSearchDomain&#45;&gt;\\smtech\\StMarksSearch\\AbstractSearchDomain</title>
<path fill="none" stroke="#000000" d="M261.9789,-275.8913C255.7915,-277.9603 249.7497,-280.3166 244.0215,-283 198.7511,-304.2067 155.5068,-343.4273 129.8546,-369.3688"/>
<polygon fill="none" stroke="#000000" points="127.2521,-367.0246 122.7873,-376.6327 132.2693,-371.906 127.2521,-367.0246"/>
</g>
<!-- \\smtech\\StMarksSearch\\SearchSource -->
<g id="node8" class="node">
<title>\\smtech\\StMarksSearch\\SearchSource</title>
<polygon fill="none" stroke="#000000" points="636.6738,-176 541.2476,-176 541.2476,-140 636.6738,-140 636.6738,-176"/>
<text text-anchor="middle" x="588.9607" y="-154.7" font-family="Courier,monospace" font-size="11.00" fill="#000000">SearchSource</text>
</g>
<!-- \\smtech\\StMarksSearch\\SearchResult -->
<g id="node10" class="node">
<title>\\smtech\\StMarksSearch\\SearchResult</title>
<polygon fill="none" stroke="#000000" points="636.6738,-122 541.2476,-122 541.2476,-86 636.6738,-86 636.6738,-122"/>
<text text-anchor="middle" x="588.9607" y="-100.7" font-family="Courier,monospace" font-size="11.00" fill="#000000">SearchResult</text>
</g>
<!-- \\smtech\\StMarksSearch\\Relevance -->
<g id="node11" class="node">
<title>\\smtech\\StMarksSearch\\Relevance</title>
<polygon fill="none" stroke="#000000" points="626.8715,-68 551.0499,-68 551.0499,-32 626.8715,-32 626.8715,-68"/>
<text text-anchor="middle" x="588.9607" y="-46.7" font-family="Courier,monospace" font-size="11.00" fill="#000000">Relevance</text>
</g>
<!-- \\smtech\\StMarksSearch\\SearchEngine&#45;&gt;\\smtech\\StMarksSearch\\AbstractSearchDomain -->
<g id="edge8" class="edge">
<title>\\smtech\\StMarksSearch\\SearchEngine&#45;&gt;\\smtech\\StMarksSearch\\AbstractSearchDomain</title>
<path fill="none" stroke="#000000" d="M307.8828,-395C274.7308,-395 229.6963,-395 190.5741,-395"/>
<polygon fill="none" stroke="#000000" points="190.2403,-391.5001 180.2403,-395 190.2403,-398.5001 190.2403,-391.5001"/>
</g>
</g>
</svg>
